<svg width="104" height="104" viewBox="0 0 104 104" fill="none" xmlns="http://www.w3.org/2000/svg">
<path d="M84.009 36.255L89.8 41.9L93.3 22.2L74 26.5L79.502 31.863L74.611 36.7H67.3C66.747 36.7 66.3 37.148 66.3 37.7V44.778L59.1 51.822V21C59.1 20.448 58.653 20 58.1 20H47C46.448 20 46 20.448 46 21V44.432L38.7 37.368V29.4C38.7 28.848 38.252 28.4 37.7 28.4H26.6C26.048 28.4 25.6 28.848 25.6 29.4V53.015C25.499 53.013 25.401 53 25.3 53C16.9 53 10 59.8 10 68.3C10 76.7 16.8 83.6 25.3 83.6C31.703 83.6 37.224 79.644 39.492 74H86.2C86.753 74 87.2 73.553 87.2 73V62.8C87.2 62.247 86.753 61.8 86.2 61.8H79.4V40.81L84.009 36.255ZM68.3 38.7H77.4V61.7H68.3V38.7ZM48 22H57.1V61.7H48V22ZM46 53.132V61.8H39.117C38.982 61.517 38.852 61.232 38.701 60.959V46.068L46 53.132ZM27.6 30.4H36.7V58.16C34.377 55.554 31.19 53.746 27.6 53.194V30.4ZM27.1 74.7H26.2V77.2C26.2 77.8 25.8 78.2 25.2 78.2C24.6 78.2 24.2 77.8 24.2 77.2V74.7H21.6C21 74.7 20.6 74.3 20.6 73.7C20.6 73.1 21 72.7 21.6 72.7H27.1C28.1 72.7 28.9 71.9 28.9 71C28.9 70.1 28.1 69.3 27.1 69.3H23.4C21.3 69.3 19.6 67.6 19.6 65.6C19.6 63.6 21.3 61.9 23.4 61.9H24.3V59.5C24.3 58.9 24.7 58.5 25.3 58.5C25.9 58.5 26.3 58.9 26.3 59.5V61.9H28.9C29.5 61.9 29.9 62.3 29.9 62.9C29.9 63.4 29.5 63.9 28.9 63.9H23.4C22.4 63.9 21.6 64.7 21.6 65.6C21.6 66.5 22.4 67.3 23.4 67.3H27.1C29.2 67.3 30.9 69 30.9 71C30.9 73 29.2 74.7 27.1 74.7ZM85.2 72H40.132C40.426 70.814 40.6 69.58 40.6 68.3C40.6 66.736 40.359 65.225 39.916 63.8H85.2V72ZM59.1 61.8V60.614L66.3 53.577V61.8H59.1Z" fill="black"/>
</svg>
