<svg width="104" height="104" viewBox="0 0 104 104" fill="none" xmlns="http://www.w3.org/2000/svg">
<path fill-rule="evenodd" clip-rule="evenodd" d="M72.968 34H88.769C91.636 34 93.968 36.333 93.968 39.2V79.299C93.968 79.852 93.521 80.299 92.968 80.299H71.968H71.868H47.147C44.325 86.483 38.098 90.799 30.868 90.799C20.998 90.799 12.968 82.77 12.968 72.9C12.968 63.03 20.998 55 30.868 55C31.153 55 31.4322 55.0194 31.7118 55.0388L31.7123 55.0388L31.7127 55.0388L31.7132 55.0389L31.7137 55.0389L31.7141 55.0389L31.7145 55.039C31.7989 55.0448 31.8833 55.0507 31.968 55.056V18.2C31.968 15.333 34.301 13 37.168 13H67.769C70.636 13 72.968 15.333 72.968 18.2V34ZM45.508 79.1C45.531 78.993 45.565 78.894 45.619 78.803C46.353 76.976 46.768 74.987 46.767 72.901C46.767 64.134 39.634 57.001 30.867 57.001C22.1 57.001 14.967 64.133 14.967 72.901C14.967 81.667 22.1 88.8 30.867 88.8C37.436 88.8 43.087 84.796 45.508 79.1ZM47.932 78.3H70.968V18.2C70.968 16.465 69.503 15 67.769 15H37.168C35.433 15 33.968 16.465 33.968 18.2V55.288C42.363 56.763 48.768 64.09 48.768 72.901C48.768 74.782 48.473 76.595 47.932 78.3ZM72.968 78.3H91.968V39.2C91.968 37.465 90.503 36 88.769 36H72.968V78.3ZM42.468 25.5C42.468 24.948 42.916 24.5 43.468 24.5C44.021 24.5 44.468 24.948 44.468 25.5V52.9C44.468 53.452 44.02 53.9 43.468 53.9C42.916 53.9 42.468 53.452 42.468 52.9V25.5ZM50.868 25.5C50.868 24.948 51.316 24.5 51.868 24.5C52.42 24.5 52.868 24.948 52.868 25.5V67.7C52.868 68.253 52.42 68.7 51.868 68.7C51.316 68.7 50.868 68.253 50.868 67.7V25.5ZM60.368 24.5C59.815 24.5 59.368 24.948 59.368 25.5V67.7C59.368 68.253 59.815 68.7 60.368 68.7C60.921 68.7 61.368 68.253 61.368 67.7V25.5C61.368 24.948 60.921 24.5 60.368 24.5ZM87.769 43.5H77.168C76.615 43.5 76.168 43.948 76.168 44.5C76.168 45.052 76.615 45.5 77.168 45.5H87.769C88.322 45.5 88.769 45.052 88.769 44.5C88.769 43.948 88.321 43.5 87.769 43.5ZM77.168 51.9H87.769C88.321 51.9 88.769 52.348 88.769 52.9C88.769 53.452 88.322 53.9 87.769 53.9H77.168C76.615 53.9 76.168 53.452 76.168 52.9C76.168 52.348 76.615 51.9 77.168 51.9ZM87.769 60.3H77.168C76.615 60.3 76.168 60.747 76.168 61.3C76.168 61.853 76.615 62.3 77.168 62.3H87.769C88.322 62.3 88.769 61.853 88.769 61.3C88.769 60.747 88.321 60.3 87.769 60.3ZM77.168 68.8H87.769C88.321 68.8 88.769 69.247 88.769 69.8C88.769 70.353 88.322 70.8 87.769 70.8H77.168C76.615 70.8 76.168 70.353 76.168 69.8C76.168 69.247 76.615 68.8 77.168 68.8ZM23.468 70.8V81.4H28.768V75H32.968V81.4H38.168V70.8L30.868 64.5L23.468 70.8ZM15.761 56.705C15.583 56.837 15.375 56.9 15.169 56.9C14.862 56.9 14.559 56.76 14.364 56.494C10.4 51.118 9.1 45.88 10.603 41.346C12.114 36.789 16.45 33.218 23.162 30.972L16.823 29.369C16.287 29.233 15.963 28.689 16.099 28.154C16.234 27.618 16.782 27.297 17.313 27.43L26.013 29.63C26.298 29.702 26.537 29.896 26.666 30.161C26.796 30.425 26.802 30.733 26.683 31.003L22.983 39.403C22.818 39.777 22.451 40 22.067 40C21.933 40 21.796 39.973 21.664 39.915C21.158 39.693 20.929 39.103 21.152 38.597L23.656 32.913C17.644 34.951 13.795 38.07 12.5 41.976C11.21 45.867 12.41 50.477 15.972 55.307C16.301 55.751 16.206 56.378 15.761 56.705Z" fill="black"/>
</svg>
