<svg width="104" height="104" viewBox="0 0 104 104" fill="none" xmlns="http://www.w3.org/2000/svg">
<path fill-rule="evenodd" clip-rule="evenodd" d="M76.9 65.451V21.2C76.9 17.285 73.714 14.1 69.799 14.1H22.914C22.551 14.039 22.18 14 21.8 14H21.7C18 14 15 17 15 20.7V34.4H26.4V75.6C26.4 75.834 26.483 76.062 26.633 76.242L31.733 82.343C31.923 82.571 32.204 82.701 32.5 82.701H32.503C32.8 82.7 33.082 82.566 33.271 82.337L37.201 77.571L41.229 82.438C41.419 82.667 41.702 82.8 42 82.8H42.001C42.299 82.8 42.582 82.666 42.772 82.436L46.701 77.672L50.629 82.436C50.817 82.665 51.099 82.798 51.395 82.8H51.4C51.695 82.8 51.975 82.67 52.165 82.445L56.193 77.661L60.229 82.539C60.42 82.768 60.702 82.9 61 82.9C61.283 82.939 61.585 82.764 61.774 82.533L64.021 79.781C65.09 85.372 69.998 89.6 75.9 89.6C82.583 89.6 88 84.183 88 77.5C88 71.155 83.114 65.96 76.9 65.451ZM63.833 76.851L60.995 80.326L56.971 75.462C56.782 75.233 56.501 75.101 56.204 75.1H56.2C55.905 75.1 55.625 75.23 55.435 75.455L51.408 80.237L47.471 75.464C47.281 75.234 46.998 75.1 46.7 75.1C46.402 75.1 46.118 75.234 45.929 75.464L41.999 80.23L37.971 75.363C37.781 75.133 37.498 75 37.2 75H37.199C36.901 75 36.618 75.134 36.428 75.364L32.494 80.135L28.4 75.236V34.4H28.5V20.7C28.5 18.917 27.799 17.301 26.663 16.1H69.8C72.612 16.1 74.901 18.388 74.901 21.2V65.45C68.901 65.942 64.154 70.805 63.833 76.851ZM81.707 74.707L74.707 81.707C74.52 81.895 74.265 82 74 82C73.735 82 73.48 81.895 73.293 81.707L69.993 78.407C69.602 78.016 69.602 77.383 69.993 76.993C70.384 76.603 71.017 76.602 71.407 76.993L74 79.586L80.293 73.293C80.684 72.902 81.317 72.902 81.707 73.293C82.097 73.684 82.098 74.317 81.707 74.707ZM62.8 26.1H37.7C37.148 26.1 36.7 26.548 36.7 27.1C36.7 27.652 37.148 28.1 37.7 28.1H62.8C63.353 28.1 63.8 27.652 63.8 27.1C63.8 26.548 63.353 26.1 62.8 26.1ZM62.8 42.9H37.7C37.148 42.9 36.7 43.348 36.7 43.9C36.7 44.452 37.148 44.9 37.7 44.9H62.8C63.353 44.9 63.8 44.452 63.8 43.9C63.8 43.348 63.353 42.9 62.8 42.9ZM52.7 36.5H37.7C37.148 36.5 36.7 36.052 36.7 35.5C36.7 34.948 37.148 34.5 37.7 34.5H52.7C53.253 34.5 53.7 34.948 53.7 35.5C53.7 36.052 53.253 36.5 52.7 36.5ZM55.25 50.887C55.423 50.362 55.99 50.076 56.513 50.25C57.037 50.423 57.322 50.988 57.15 51.512C54.349 60.027 52.632 61.049 51.19 60.894C49.5991 60.794 49.333 58.9053 49.1191 57.3864L49.119 57.386L49.1157 57.3628C49.0598 56.9691 48.978 56.3939 48.879 56.036C48.389 56.457 47.597 57.69 47.186 58.332L47.1825 58.3374C46.2295 59.8234 45.5968 60.8099 44.59 60.693C43.3324 60.553 43.29 59.1198 43.241 57.4614L43.241 57.46C43.222 56.798 43.184 55.513 42.998 54.976C42.242 55.431 40.74 57.306 38.527 60.562C38.333 60.847 38.019 61 37.699 61C37.506 61 37.31 60.944 37.138 60.828C36.681 60.517 36.562 59.895 36.873 59.438C40.024 54.804 41.919 52.527 43.543 52.931C45.1215 53.3509 45.185 55.5027 45.2409 57.4012L45.241 57.403C45.2419 57.4365 45.2429 57.4711 45.244 57.5065C45.2454 57.5525 45.2469 57.6 45.248 57.648C45.3047 57.561 45.3599 57.4748 45.4124 57.3927C45.4432 57.3445 45.4732 57.2977 45.502 57.253C46.559 55.604 47.652 53.9 49.1 53.9C50.647 53.9 50.898 55.679 51.099 57.107L51.099 57.1072C51.17 57.6133 51.295 58.5041 51.464 58.861C51.821 58.658 53.08 57.486 55.25 50.887Z" fill="black"/>
</svg>
