<svg width="104" height="104" viewBox="0 0 104 104" fill="none" xmlns="http://www.w3.org/2000/svg">
<path d="M54.4 43.2991L61.763 37.7771L73.216 46.0121C73.256 46.0401 73.301 46.0541 73.343 46.0761C73.379 46.0951 73.411 46.1151 73.449 46.1291C73.562 46.1721 73.68 46.2001 73.8 46.2001C73.919 46.2001 74.036 46.1721 74.15 46.1291C74.188 46.1151 74.221 46.0941 74.257 46.0761C74.298 46.0551 74.343 46.0421 74.381 46.0141L86.581 37.3141C86.844 37.1261 87 36.8231 87 36.5001V23.7001C87 23.5781 86.971 23.4621 86.93 23.3501C86.922 23.3291 86.916 23.3081 86.907 23.2881C86.861 23.1871 86.8 23.0951 86.723 23.0141C86.707 22.9981 86.69 22.9841 86.674 22.9691C86.644 22.9411 86.617 22.9101 86.583 22.8861L74.383 14.1861C74.033 13.9371 73.566 13.9381 73.218 14.1881L61.118 22.8881C61.085 22.9121 61.059 22.9421 61.029 22.9701C61.012 22.9861 60.995 22.9991 60.979 23.0161C60.902 23.0971 60.841 23.1891 60.795 23.2891C60.786 23.3091 60.78 23.3301 60.772 23.3511C60.73 23.4621 60.701 23.5791 60.701 23.7011V36.0761L53.388 41.5601L36.283 29.2881C35.934 29.0381 35.466 29.0381 35.117 29.2881L17.417 41.9881C17.384 42.0121 17.357 42.0431 17.327 42.0701C17.31 42.0851 17.293 42.0991 17.278 42.1151C17.201 42.1961 17.139 42.2881 17.093 42.3891C17.084 42.4091 17.078 42.4291 17.07 42.4501C17.029 42.5611 17 42.6781 17 42.8001V61.4001C17 61.7221 17.155 62.0251 17.417 62.2121L35.117 74.9111C35.156 74.9391 35.201 74.9521 35.243 74.9741C35.279 74.9931 35.312 75.0131 35.35 75.0281C35.463 75.0711 35.581 75.0991 35.7 75.0991C35.819 75.0991 35.937 75.0711 36.05 75.0281C36.088 75.0141 36.121 74.9931 36.157 74.9741C36.199 74.9521 36.244 74.9391 36.283 74.9111L53.403 62.6281L60.7 67.8151V80.0001C60.7 80.3221 60.855 80.6241 61.116 80.8121L73.216 89.5121C73.255 89.5401 73.299 89.5531 73.341 89.5751C73.377 89.5941 73.411 89.6151 73.45 89.6301C73.563 89.6731 73.681 89.7011 73.8 89.7011C73.919 89.7011 74.037 89.6731 74.151 89.6301C74.188 89.6161 74.22 89.5961 74.256 89.5781C74.298 89.5561 74.343 89.5431 74.382 89.5151L86.582 80.8151C86.844 80.6271 87 80.3231 87 80.0001V67.1001V67.0991C87 67.0981 87 67.0981 87 67.0971C87 66.9761 86.971 66.8611 86.93 66.7511C86.922 66.7291 86.916 66.7081 86.906 66.6871C86.86 66.5861 86.799 66.4951 86.722 66.4141C86.707 66.3981 86.69 66.3851 86.674 66.3701C86.643 66.3421 86.616 66.3101 86.582 66.2861L74.38 57.5861C74.032 57.3371 73.564 57.3381 73.216 57.5891L61.557 65.9711L54.4 60.8841V43.2991ZM72.8 43.2501L62.7 35.9881V25.6511L72.8 32.9131V43.2501ZM73.802 16.2301L84.278 23.7001L73.802 31.1701L63.413 23.7001L73.802 16.2301ZM35.7 31.3311L51.685 42.8001L35.7 54.2701L19.715 42.8001L35.7 31.3311ZM36.7 72.1521V56.0131L52.4 44.7481V60.8871L36.7 72.1521ZM74.8 86.7591V76.4121L85 69.0531V79.4851L74.8 86.7591ZM73.802 59.6301L84.284 67.1051L73.802 74.6671L63.406 67.1051L73.802 59.6301Z" fill="black"/>
</svg>
