<svg width="104" height="104" viewBox="0 0 104 104" fill="none" xmlns="http://www.w3.org/2000/svg">
<path fill-rule="evenodd" clip-rule="evenodd" d="M70.8 65.8504H79.5C81.2 65.8504 82.5 67.1504 82.5 68.8504V87.8504C82.5 89.4504 81.2 90.8504 79.5 90.8504H50.8C49.1 90.8504 47.8 89.5504 47.8 87.8504V81.3504H26.5C23.743 81.3504 21.5 79.1074 21.5 76.3504V18.1504C21.5 15.3934 23.743 13.1504 26.5 13.1504H65.8C68.557 13.1504 70.8 15.3934 70.8 18.1504V65.8504ZM57.893 83.1574C58.283 83.5484 58.916 83.5484 59.307 83.1574C59.698 82.7674 59.698 82.1334 59.307 81.7434L55.814 78.2504L59.207 74.8574C59.598 74.4674 59.597 73.8344 59.207 73.4434C58.817 73.0524 58.184 73.0524 57.793 73.4434L53.693 77.5434C53.302 77.9334 53.302 78.5674 53.693 78.9574L57.893 83.1574ZM63.433 85.5114L68.733 71.8114C68.932 71.2964 68.676 70.7174 68.161 70.5184C67.646 70.3194 67.067 70.5754 66.868 71.0904L61.568 84.7904C61.369 85.3054 61.625 85.8844 62.14 86.0834C62.655 86.2824 63.234 86.0264 63.433 85.5114ZM50.8 65.8504H68.8V18.1504C68.8 16.4964 67.454 15.1504 65.8 15.1504H26.5C24.846 15.1504 23.5 16.4964 23.5 18.1504V76.3504C23.5 78.0044 24.846 79.3504 26.5 79.3504H47.8V68.8504C47.8 67.1504 49.1 65.8504 50.8 65.8504ZM72.507 83.1574L76.607 79.0574C76.998 78.6674 76.998 78.0334 76.607 77.6434L72.407 73.4434C72.017 73.0524 71.384 73.0534 70.993 73.4434C70.602 73.8334 70.602 74.4664 70.993 74.8574L74.486 78.3504L71.093 81.7434C70.702 82.1334 70.702 82.7664 71.093 83.1574C71.483 83.5484 72.116 83.5484 72.507 83.1574ZM30.3 27.3504H43.4C43.952 27.3504 44.4 26.9024 44.4 26.3504C44.4 25.7984 43.952 25.3504 43.4 25.3504H30.3C29.748 25.3504 29.3 25.7984 29.3 26.3504C29.3 26.9024 29.748 27.3504 30.3 27.3504ZM49.5 27.3504H56.7C57.253 27.3504 57.7 26.9024 57.7 26.3504C57.7 25.7984 57.253 25.3504 56.7 25.3504H49.5C48.948 25.3504 48.5 25.7984 48.5 26.3504C48.5 26.9024 48.948 27.3504 49.5 27.3504ZM30.3 67.1504H43.4C43.952 67.1504 44.4 67.5974 44.4 68.1504C44.4 68.7034 43.952 69.1504 43.4 69.1504H30.3C29.748 69.1504 29.3 68.7034 29.3 68.1504C29.3 67.5974 29.748 67.1504 30.3 67.1504ZM56.7 58.8504H49.5C48.948 58.8504 48.5 59.2974 48.5 59.8504C48.5 60.4034 48.948 60.8504 49.5 60.8504H56.7C57.253 60.8504 57.7 60.4034 57.7 59.8504C57.7 59.2974 57.253 58.8504 56.7 58.8504ZM42.2 60.8504H30.3C29.748 60.8504 29.3 60.4034 29.3 59.8504C29.3 59.2974 29.748 58.8504 30.3 58.8504H42.2C42.752 58.8504 43.2 59.2974 43.2 59.8504C43.2 60.4034 42.752 60.8504 42.2 60.8504ZM52.8 51.4504C52.8 50.8984 52.352 50.4504 51.8 50.4504H47C46.448 50.4504 46 50.8984 46 51.4504C46 52.0024 46.448 52.4504 47 52.4504H51.8C52.352 52.4504 52.8 52.0024 52.8 51.4504ZM38.6 35.7504H30.3C29.748 35.7504 29.3 35.3024 29.3 34.7504C29.3 34.1984 29.748 33.7504 30.3 33.7504H38.6C39.152 33.7504 39.6 34.1984 39.6 34.7504C39.6 35.3024 39.152 35.7504 38.6 35.7504ZM43.8 34.7504C43.8 35.3024 44.248 35.7504 44.8 35.7504H51.9C52.452 35.7504 52.9 35.3024 52.9 34.7504C52.9 34.1984 52.452 33.7504 51.9 33.7504H44.8C44.248 33.7504 43.8 34.1984 43.8 34.7504ZM57.2 33.7504H62C62.553 33.7504 63 34.1984 63 34.7504C63 35.3024 62.553 35.7504 62 35.7504H57.2C56.647 35.7504 56.2 35.3024 56.2 34.7504C56.2 34.1984 56.647 33.7504 57.2 33.7504ZM30.3 44.0504H38.6C39.152 44.0504 39.6 43.6024 39.6 43.0504C39.6 42.4984 39.152 42.0504 38.6 42.0504H30.3C29.748 42.0504 29.3 42.4984 29.3 43.0504C29.3 43.6024 29.748 44.0504 30.3 44.0504ZM54.3 42.0504C54.853 42.0504 55.3 42.4984 55.3 43.0504C55.3 43.6024 54.853 44.0504 54.3 44.0504H44.8C44.248 44.0504 43.8 43.6024 43.8 43.0504C43.8 42.4984 44.248 42.0504 44.8 42.0504H54.3ZM30.3 52.4504H42.2C42.752 52.4504 43.2 52.0024 43.2 51.4504C43.2 50.8984 42.752 50.4504 42.2 50.4504H30.3C29.748 50.4504 29.3 50.8984 29.3 51.4504C29.3 52.0024 29.748 52.4504 30.3 52.4504Z" fill="black"/>
</svg>
