<svg width="104" height="104" viewBox="0 0 104 104" fill="none" xmlns="http://www.w3.org/2000/svg">
<path fill-rule="evenodd" clip-rule="evenodd" d="M73.1 26.1V59.904C78.534 62.846 82 68.65 82 74.9C82 84.274 74.374 91.9 65 91.9C61.146 91.9 57.476 90.616 54.382 88.186C52.902 87.075 51.616 85.587 50.544 83.799H29.4C24.768 83.799 21 80.032 21 75.4V21.4C21 16.768 24.768 13 29.4 13H60.9C60.909 13 60.9174 13.0025 60.9258 13.005L60.9258 13.005C60.9334 13.0073 60.941 13.0095 60.949 13.01C60.9575 13.0095 60.9654 13.0073 60.9732 13.005C60.9819 13.0025 60.9905 13 61 13C61.424 13 61.781 13.265 61.927 13.636L72.808 25.394C72.8202 25.4062 72.8285 25.421 72.8366 25.4356C72.8431 25.4472 72.8496 25.4588 72.858 25.469C72.922 25.545 72.983 25.623 73.022 25.715C73.073 25.836 73.1 25.967 73.1 26.1ZM60 15H29.4C25.871 15 23 17.871 23 21.399V73.399H48.064C48.194 71.812 48.53 70.342 49.075 69.019C51.467 62.385 57.873 57.9 65 57.9C67.041 57.9 69.086 58.292 71.1 59.029V27.1H61C60.447 27.1 60 26.652 60 26.1V15ZM55.601 86.6C58.354 88.763 61.6 89.9 65 89.9C73.271 89.9 80 83.172 80 74.9C80 69.183 76.727 63.883 71.659 61.397C69.482 60.408 67.232 59.9 65 59.9C58.713 59.9 53.063 63.854 50.941 69.739C50.311 71.27 50 72.992 50 74.9C50 77.466 50.682 80.027 51.971 82.307C52.965 84.095 54.185 85.538 55.601 86.6ZM54.7 32.2H30.6C30.048 32.2 29.6 31.752 29.6 31.2C29.6 30.648 30.048 30.2 30.6 30.2H54.7C55.253 30.2 55.7 30.648 55.7 31.2C55.7 31.752 55.253 32.2 54.7 32.2ZM45.5 40.7H30.6C30.048 40.7 29.6 40.252 29.6 39.7C29.6 39.148 30.048 38.7 30.6 38.7H45.5C46.052 38.7 46.5 39.148 46.5 39.7C46.5 40.252 46.052 40.7 45.5 40.7ZM31.126 55.362C33.351 52.091 34.849 50.236 35.587 49.838C35.789 50.359 35.813 51.731 35.825 52.429C35.854 54.096 35.875 55.3 36.957 55.571C37 55.583 37.045 55.591 37.09 55.595C38.09 55.705 38.744 54.718 39.712 53.221L39.7128 53.2198C40.1 52.6205 40.8383 51.4777 41.286 51.054C41.385 51.425 41.463 52.015 41.515 52.41C41.708 53.87 41.95 55.69 43.49 55.895C43.574 55.904 43.659 55.91 43.745 55.91C45.13 55.91 46.805 54.546 49.448 46.617C49.623 46.093 49.34 45.527 48.816 45.352C48.291 45.176 47.726 45.461 47.551 45.984C45.421 52.374 44.172 53.614 43.829 53.853C43.674 53.483 43.561 52.634 43.497 52.147C43.306 50.7 43.067 48.9 41.5 48.9C40.123 48.9 39.107 50.471 38.032 52.135C37.969 52.234 37.899 52.341 37.826 52.452C37.826 52.432 37.825 52.413 37.825 52.393L37.825 52.391C37.791 50.4535 37.7525 48.2589 36.216 47.851C34.562 47.299 32.648 49.569 29.473 54.237C29.162 54.694 29.281 55.316 29.737 55.627C30.195 55.938 30.817 55.818 31.126 55.362ZM53.6 76.4C54.4284 76.4 55.1 75.7284 55.1 74.9C55.1 74.0716 54.4284 73.4 53.6 73.4C52.7715 73.4 52.1 74.0716 52.1 74.9C52.1 75.7284 52.7715 76.4 53.6 76.4ZM78 74.9C78 75.7284 77.3284 76.4 76.5 76.4C75.6716 76.4 75 75.7284 75 74.9C75 74.0716 75.6716 73.4 76.5 73.4C77.3284 73.4 78 74.0716 78 74.9ZM65.1 87.9C65.9284 87.9 66.6 87.2284 66.6 86.4C66.6 85.5716 65.9284 84.9 65.1 84.9C64.2715 84.9 63.6 85.5716 63.6 86.4C63.6 87.2284 64.2715 87.9 65.1 87.9ZM66.1 73.9H70.4C70.953 73.9 71.4 74.347 71.4 74.9C71.4 75.453 70.953 75.9 70.4 75.9H66.1V77.3C66.1 77.853 65.653 78.3 65.1 78.3C64.547 78.3 64.1 77.853 64.1 77.3V75.9H62.6C62.047 75.9 61.6 75.453 61.6 74.9C61.6 74.347 62.047 73.9 62.6 73.9H64.1V63.9C64.1 63.347 64.547 62.9 65.1 62.9C65.653 62.9 66.1 63.347 66.1 63.9V73.9Z" fill="black"/>
</svg>
