<svg width="104" height="104" viewBox="0 0 104 104" fill="none" xmlns="http://www.w3.org/2000/svg">
<path fill-rule="evenodd" clip-rule="evenodd" d="M83 61H21C18.243 61 16 58.757 16 56V40C16 37.243 18.243 35 21 35H40.698C38.855 29.661 38.6 24.8 38.6 24.8L52.1 14L65.6 24.8C65.6 24.8 65.346 29.661 63.502 35H83C85.757 35 88 37.243 88 40V56C88 58.757 85.757 61 83 61ZM47.783 31.37C47.38 30.993 46.748 31.013 46.37 31.416C45.993 31.819 46.013 32.452 46.416 32.829L49.616 35.829C50.004 36.193 50.608 36.189 50.992 35.821L58.392 28.721C58.79 28.338 58.803 27.705 58.421 27.307C58.038 26.909 57.405 26.896 57.007 27.278L50.291 33.721L47.783 31.37ZM21 37C19.346 37 18 38.346 18 40V56C18 57.654 19.346 59 21 59H83C84.654 59 86 57.654 86 56V40C86 38.346 84.654 37 83 37H63.1C62.982 37 62.873 36.97 62.769 36.933C60.821 41.611 57.557 46.254 52.1 48C46.631 46.25 43.363 41.59 41.418 36.902C41.29 36.962 41.15 37 41 37H21ZM78.1 46H68.1C67.547 46 67.1 45.552 67.1 45C67.1 44.448 67.547 44 68.1 44H78.1C78.653 44 79.1 44.448 79.1 45C79.1 45.552 78.653 46 78.1 46ZM68.1 52H78.1C78.653 52 79.1 51.552 79.1 51C79.1 50.448 78.653 50 78.1 50H68.1C67.547 50 67.1 50.448 67.1 51C67.1 51.552 67.547 52 68.1 52ZM33.1 48C33.1 50.7614 30.8614 53 28.1 53C25.3386 53 23.1 50.7614 23.1 48C23.1 45.2386 25.3386 43 28.1 43C30.8614 43 33.1 45.2386 33.1 48ZM83.1 65H21.1C18.343 65 16.1 67.243 16.1 70V86C16.1 88.757 18.343 91 21.1 91H83.1C85.857 91 88.1 88.757 88.1 86V70C88.1 67.243 85.856 65 83.1 65ZM86.1 86C86.1 87.654 84.754 89 83.1 89H21.1C19.446 89 18.1 87.654 18.1 86V70C18.1 68.346 19.446 67 21.1 67H83.1C84.754 67 86.1 68.346 86.1 70V86ZM52.1 74H62.1C62.652 74 63.1 74.447 63.1 75C63.1 75.553 62.653 76 62.1 76H52.1C51.548 76 51.1 75.553 51.1 75C51.1 74.447 51.548 74 52.1 74ZM78.1 74H68.1C67.547 74 67.1 74.447 67.1 75C67.1 75.553 67.547 76 68.1 76H78.1C78.653 76 79.1 75.553 79.1 75C79.1 74.447 78.652 74 78.1 74ZM52.1 80H62.1C62.652 80 63.1 80.447 63.1 81C63.1 81.553 62.653 82 62.1 82H52.1C51.548 82 51.1 81.553 51.1 81C51.1 80.447 51.548 80 52.1 80ZM78.1 80H68.1C67.547 80 67.1 80.447 67.1 81C67.1 81.553 67.547 82 68.1 82H78.1C78.653 82 79.1 81.553 79.1 81C79.1 80.447 78.652 80 78.1 80ZM33.1 78C33.1 80.7614 30.8614 83 28.1 83C25.3386 83 23.1 80.7614 23.1 78C23.1 75.2386 25.3386 73 28.1 73C30.8614 73 33.1 75.2386 33.1 78Z" fill="black"/>
</svg>
