<svg width="104" height="104" viewBox="0 0 104 104" fill="none" xmlns="http://www.w3.org/2000/svg">
<path d="M89.9 90.7H81.2V81.742L85.272 78.039C85.68 77.667 85.71 77.035 85.339 76.626C84.968 76.218 84.334 76.189 83.926 76.559L81.2 79.039V73.3C81.2 72.747 80.753 72.3 80.2 72.3C79.647 72.3 79.2 72.747 79.2 73.3V83.371L74.679 77.773C74.331 77.342 73.702 77.275 73.273 77.623C72.844 77.971 72.776 78.6 73.123 79.029L79.201 86.554V90.7H72.981C72.124 85.452 67.604 81.6 62.1 81.6C60.958 81.6 59.821 81.791 58.701 82.149V73.6H67.501C67.767 73.6 68.021 73.495 68.208 73.307L78.208 63.307C78.396 63.119 78.501 62.866 78.501 62.6C78.501 62.334 78.396 62.08 78.208 61.893L68.208 51.893C68.02 51.706 67.766 51.6 67.5 51.6H58.7V44.5H72.5C73.053 44.5 73.5 44.052 73.5 43.5V23.5C73.5 22.948 73.053 22.5 72.5 22.5H58.7V13C58.7 12.448 58.253 12 57.7 12H47.3C46.748 12 46.3 12.448 46.3 13V22.5H36.5C36.235 22.5 35.98 22.605 35.793 22.793L25.793 32.793C25.402 33.184 25.402 33.816 25.793 34.207L35.793 44.207C35.98 44.395 36.235 44.5 36.5 44.5H46.3V51.6H31.5C30.948 51.6 30.5 52.048 30.5 52.6V72.6C30.5 73.153 30.948 73.6 31.5 73.6H46.3V80.831C44.682 80.022 42.88 79.6 41 79.6C36.485 79.6 32.303 82.219 30.287 86.218C29.312 85.811 28.214 85.6 27 85.6C23.508 85.6 20.405 87.589 18.879 90.701H14C13.448 90.701 13 91.148 13 91.701C13 92.254 13.448 92.701 14 92.701H89.9C90.453 92.701 90.9 92.254 90.9 91.701C90.9 91.148 90.453 90.7 89.9 90.7ZM62.1 83.6C66.491 83.6 70.114 86.586 70.945 90.701H58.7V84.275C59.821 83.835 60.961 83.6 62.1 83.6ZM27.914 33.5L36.914 24.5H71.5V42.5H36.914L27.914 33.5ZM32.5 53.601H67.086L76.086 62.6L67.086 71.6H32.5V53.601ZM41 81.6C42.926 81.6 44.745 82.133 46.3 83.136V90.7H31.042C31.119 89.855 31.317 89.028 31.636 88.144C31.638 88.141 31.642 88.139 31.644 88.135C31.722 88.012 31.766 87.878 31.786 87.742C33.32 84.064 37.002 81.6 41 81.6ZM27 87.6C27.959 87.6 28.813 87.759 29.551 88.072C29.276 88.96 29.109 89.824 29.042 90.701H21.179C22.481 88.787 24.624 87.6 27 87.6Z" fill="black"/>
</svg>
