<svg width="104" height="104" viewBox="0 0 104 104" fill="none" xmlns="http://www.w3.org/2000/svg">
<path fill-rule="evenodd" clip-rule="evenodd" d="M73.1 64H77.2C79.957 64 82.2 66.243 82.2 69V85.699C82.2 88.456 79.957 90.699 77.2 90.699H47C44.243 90.699 42 88.456 42 85.699V84.799H29.4C24.768 84.799 21 81.032 21 76.4V22.4C21 17.768 24.768 14 29.4 14H60.9C61.179 14 61.445 14.116 61.635 14.321L72.809 26.394C72.996 26.582 73.1 26.836 73.1 27.1V64ZM23 76.401C23 79.929 25.871 82.8 29.4 82.8H42V69C42 66.243 44.243 64 47 64H58.2V62.801C58.2 61.701 59.1 60.801 60.2 60.801H64.1C65.2 60.801 66.1 61.701 66.1 62.801V64.001H71.1V28.001H60.8C60.247 28.001 59.8 27.553 59.8 27.001V16.001H29.4C25.871 16.001 23 18.872 23 22.401V76.401ZM77.2 88.7C78.854 88.7 80.2 87.354 80.2 85.7V69C80.2 67.346 78.854 66 77.2 66H47C45.346 66 44 67.346 44 69V85.7C44 87.354 45.346 88.7 47 88.7H77.2ZM30.5 33.1H54.6C55.153 33.1 55.6 32.652 55.6 32.1C55.6 31.548 55.153 31.1 54.6 31.1H30.5C29.948 31.1 29.5 31.548 29.5 32.1C29.5 32.652 29.948 33.1 30.5 33.1ZM30.5 41.7H45.4C45.952 41.7 46.4 41.252 46.4 40.7C46.4 40.148 45.952 39.7 45.4 39.7H30.5C29.948 39.7 29.5 40.148 29.5 40.7C29.5 41.252 29.948 41.7 30.5 41.7ZM58.2 78H54.8H51.4C50.2 78 49.2 78.9 49 80.1L48.3 84.4H61.3L60.6 80.1C60.4 78.9 59.4 78 58.2 78ZM57.9 74.1C57.7 75.6 56.4 76.7 54.9 76.7C53.2 76.7 51.9 75.3 51.9 73.7V73.2C52.1 71.7 53.4 70.6 54.9 70.6H55.2C55.7 70.7 56.3 71 56.8 71.4C57.4 72 57.9 72.8 57.9 73.7V74.1ZM75.1 72.1H66.1C65.547 72.1 65.1 72.547 65.1 73.1C65.1 73.653 65.547 74.1 66.1 74.1H75.1C75.653 74.1 76.1 73.653 76.1 73.1C76.1 72.547 75.652 72.1 75.1 72.1ZM66.1 77H75.1C75.652 77 76.1 77.447 76.1 78C76.1 78.553 75.653 79 75.1 79H66.1C65.547 79 65.1 78.553 65.1 78C65.1 77.447 65.547 77 66.1 77ZM75.1 81.9H66.1C65.547 81.9 65.1 82.347 65.1 82.9C65.1 83.453 65.547 83.9 66.1 83.9H75.1C75.653 83.9 76.1 83.453 76.1 82.9C76.1 82.347 75.652 81.9 75.1 81.9ZM43.645 56.91C43.559 56.91 43.474 56.904 43.39 56.895C41.85 56.689 41.608 54.87 41.415 53.409C41.363 53.014 41.285 52.424 41.186 52.053C40.739 52.478 40 53.621 39.613 54.22C38.645 55.718 37.998 56.71 36.99 56.594C36.945 56.59 36.902 56.582 36.859 56.571C35.776 56.301 35.755 55.096 35.726 53.429C35.714 52.731 35.69 51.359 35.488 50.838C34.75 51.236 33.252 53.091 31.028 56.362C30.718 56.818 30.096 56.939 29.639 56.627C29.182 56.316 29.063 55.694 29.374 55.237C32.548 50.569 34.459 48.3 36.117 48.851C37.6535 49.2589 37.692 51.4535 37.726 53.391L37.726 53.393C37.726 53.403 37.7263 53.4128 37.7265 53.4225C37.7268 53.4323 37.727 53.442 37.727 53.452C37.7797 53.372 37.8302 53.2935 37.8783 53.2188C37.8969 53.1899 37.9152 53.1616 37.933 53.134C39.008 51.471 40.024 49.9 41.4 49.9C42.967 49.9 43.206 51.7 43.397 53.147C43.461 53.634 43.574 54.483 43.729 54.853C44.072 54.614 45.321 53.375 47.451 46.984C47.626 46.461 48.191 46.177 48.716 46.352C49.24 46.527 49.523 47.093 49.348 47.617C46.705 55.546 45.03 56.91 43.645 56.91Z" fill="black"/>
</svg>
