<svg width="104" height="104" viewBox="0 0 104 104" fill="none" xmlns="http://www.w3.org/2000/svg">
<path fill-rule="evenodd" clip-rule="evenodd" d="M78.2 14C84.265 14 89.2 18.935 89.2 25C89.2 29.185 86.85 32.83 83.4 34.689V56.099C83.274 59.369 80.684 61.9 77.5 61.9H75.9V62.1C75.9 64.7 73.7 66.9 71.1 66.9H20.8C18.1 66.9 16 64.7 16 62.1V35.7C16 33.1 18.2 30.9 20.8 30.9H21.4V29.7C21.4 26.502 24.002 23.9 27.2 23.9H67.256C67.809 18.349 72.506 14 78.2 14ZM77.5 59.901C79.604 59.901 81.317 58.214 81.401 56.061L81.4 35.522C80.387 35.831 79.313 36 78.2 36C72.439 36 67.706 31.545 67.246 25.9H27.2C25.105 25.9 23.4 27.604 23.4 29.7V56.1C23.4 58.161 25.14 59.901 27.2 59.901H77.5ZM69.2 25C69.2 29.962 73.237 34 78.2 34C83.163 34 87.2 29.962 87.2 25C87.2 20.038 83.163 16 78.2 16C73.237 16 69.2 20.038 69.2 25ZM36.7 28.7H32.1C31.548 28.7 31.1 29.148 31.1 29.7C31.1 31.814 29.268 33.6 27.1 33.6C26.548 33.6 26.1 34.048 26.1 34.6V39.1C26.1 39.652 26.548 40.1 27.1 40.1C27.652 40.1 28.1 39.652 28.1 39.1V35.514C30.564 35.088 32.569 33.121 33.01 30.7H36.7C37.252 30.7 37.7 30.252 37.7 29.7C37.7 29.148 37.252 28.7 36.7 28.7ZM36.6 55.2H32.913C32.485 52.741 30.503 50.796 27.999 50.382V46.8C27.999 46.248 27.551 45.8 26.999 45.8C26.447 45.8 25.999 46.248 25.999 46.8V51.3C25.999 51.852 26.447 52.3 26.999 52.3C29.242 52.3 30.999 54.013 30.999 56.2C30.999 56.753 31.447 57.2 31.999 57.2H36.599C37.151 57.2 37.599 56.753 37.599 56.2C37.599 55.647 37.152 55.2 36.6 55.2ZM76.8 50.386V46.8C76.8 46.248 77.247 45.8 77.8 45.8C78.353 45.8 78.8 46.248 78.8 46.8V51.3C78.8 51.852 78.353 52.3 77.8 52.3C75.632 52.3 73.8 54.086 73.8 56.2C73.8 56.753 73.353 57.2 72.8 57.2H68.2C67.647 57.2 67.2 56.753 67.2 56.2C67.2 55.647 67.647 55.2 68.2 55.2H71.891C72.331 52.779 74.335 50.812 76.8 50.386ZM52.3 50.9C56.7183 50.9 60.3 47.3183 60.3 42.9C60.3 38.4817 56.7183 34.9 52.3 34.9C47.8817 34.9 44.3 38.4817 44.3 42.9C44.3 47.3183 47.8817 50.9 52.3 50.9ZM81.993 21.293L76.7 26.586L74.407 24.293C74.016 23.902 73.384 23.902 72.993 24.293C72.602 24.684 72.602 25.316 72.993 25.707L75.993 28.707C76.188 28.902 76.444 29 76.7 29C76.956 29 77.212 28.902 77.407 28.707L83.407 22.707C83.798 22.316 83.798 21.684 83.407 21.293C83.016 20.902 82.384 20.902 81.993 21.293ZM81.6395 73.7071C81.6426 73.7194 81.6457 73.7317 81.649 73.744C81.6507 73.7504 81.6524 73.7568 81.6541 73.7631C81.6704 73.8243 81.6863 73.8836 81.689 73.947C81.6895 73.9554 81.6919 73.9634 81.6944 73.9715C81.6972 73.9806 81.7 73.9899 81.7 74V83C81.7 83.553 81.253 84 80.7 84C80.147 84 79.7 83.553 79.7 83V76.852L69.481 89.625C69.291 89.862 69.004 90 68.7 90C68.396 90 68.109 89.862 67.919 89.625L56.588 75.46L45.376 85.737C45.052 86.032 44.574 86.084 44.196 85.864L32.801 79.217L21.34 88.769C20.915 89.12 20.285 89.064 19.932 88.641C19.579 88.216 19.636 87.586 20.06 87.232L32.06 77.232C32.384 76.963 32.841 76.926 33.204 77.136L44.567 83.765L56.024 73.263C56.228 73.075 56.491 72.977 56.777 73.003C57.053 73.024 57.307 73.159 57.481 73.375L68.7 87.399L78.619 75H71.7C71.147 75 70.7 74.553 70.7 74C70.7 73.447 71.147 73 71.7 73H80.7C80.7256 73 80.7489 73.0065 80.7723 73.013C80.7901 73.0179 80.808 73.0228 80.827 73.025C80.897 73.034 80.963 73.043 81.03 73.066C81.095 73.089 81.152 73.123 81.21 73.159C81.2259 73.1686 81.2427 73.1758 81.2594 73.1829C81.2826 73.1929 81.3056 73.2027 81.326 73.219C81.341 73.231 81.347 73.248 81.361 73.261C81.4091 73.3045 81.4461 73.3548 81.4846 73.4072L81.494 73.42C81.5026 73.432 81.5115 73.4438 81.5202 73.4555C81.548 73.4926 81.5752 73.529 81.595 73.57C81.6157 73.6129 81.6275 73.6596 81.6395 73.7071Z" fill="black"/>
</svg>
