<svg width="104" height="104" viewBox="0 0 104 104" fill="none" xmlns="http://www.w3.org/2000/svg">
<path fill-rule="evenodd" clip-rule="evenodd" d="M40.9 20H88C90.2 20 92 21.8 92 24V35.8C92 38 90.2 39.8 88 39.8H78.1V64C78.1 69.68 73.48 74.3 67.8 74.3H53.683L45.283 84.824C45.093 85.061 44.805 85.2 44.501 85.2C44.197 85.2 43.909 85.061 43.719 84.824L35.319 74.3H21.3C15.621 74.3 11 69.68 11 64V39.2C11 33.521 15.621 28.9 21.3 28.9H36.9V24C36.9 21.8 38.7 20 40.9 20ZM62.652 27.779H59.652C59.052 27.779 58.752 28.579 59.252 28.979L61.652 30.779C61.852 30.879 61.952 31.179 61.852 31.479L60.952 34.379C60.752 34.979 61.452 35.479 61.952 35.079L64.352 33.279C64.652 33.079 64.952 33.079 65.152 33.279L67.552 35.079C68.052 35.479 68.752 34.979 68.552 34.379L67.652 31.479C67.552 31.279 67.652 30.979 67.852 30.779L70.252 28.979C70.752 28.579 70.452 27.779 69.852 27.779H66.852C66.552 27.779 66.352 27.579 66.252 27.279L65.352 24.479C65.152 23.879 64.252 23.879 64.152 24.379L63.252 27.279C63.152 27.579 62.952 27.779 62.652 27.779ZM46.652 27.679H43.652C43.052 27.679 42.752 28.479 43.252 28.879L45.652 30.879C45.852 30.979 45.952 31.279 45.852 31.579L44.952 34.479C44.752 35.079 45.452 35.579 45.952 35.179L48.352 33.379C48.652 33.179 48.952 33.179 49.152 33.379L51.552 35.179C52.052 35.579 52.752 35.079 52.552 34.479L51.652 31.579C51.552 31.379 51.652 31.079 51.852 30.879L54.252 29.079C54.752 28.679 54.452 27.879 53.852 27.879H50.852C50.552 27.879 50.352 27.679 50.252 27.379L49.352 24.479C49.152 23.879 48.352 23.879 48.152 24.279L47.252 27.179C47.152 27.479 46.952 27.679 46.652 27.679ZM67.8 72.3C72.376 72.3 76.1 68.576 76.1 64V39.8H40.9C38.7 39.8 36.9 38 36.9 35.8V30.9H21.3C16.723 30.9 13 34.623 13 39.2V64C13 68.576 16.723 72.3 21.3 72.3H35.8C36.104 72.3 36.392 72.439 36.582 72.676L44.5 82.597L52.418 72.676C52.608 72.439 52.896 72.3 53.2 72.3H67.8ZM83.852 30.779L86.252 28.979C86.752 28.579 86.452 27.779 85.852 27.779H82.852C82.552 27.779 82.352 27.579 82.252 27.279L81.252 24.479C81.052 23.879 80.252 23.879 80.152 24.379L79.252 27.279C79.152 27.579 78.952 27.779 78.652 27.779H75.652C75.052 27.779 74.752 28.579 75.252 28.979L77.652 30.779C77.852 30.879 77.952 31.179 77.852 31.479L76.952 34.379C76.752 34.979 77.452 35.479 77.952 35.079L80.352 33.279C80.652 33.079 80.952 33.079 81.152 33.279L83.552 35.079C84.052 35.479 84.752 34.979 84.552 34.379L83.652 31.479C83.552 31.279 83.652 30.979 83.852 30.779ZM36.799 54.813C36.405 54.426 36.399 53.793 36.786 53.399C37.172 53.003 37.806 53 38.201 53.386L42.894 57.993L53.593 47.293C53.984 46.902 54.616 46.902 55.007 47.293C55.398 47.684 55.398 48.316 55.007 48.707L43.607 60.107C43.412 60.302 43.156 60.4 42.9 60.4C42.647 60.4 42.394 60.304 42.199 60.114L36.799 54.813Z" fill="black"/>
</svg>
