<svg width="104" height="104" viewBox="0 0 104 104" fill="none" xmlns="http://www.w3.org/2000/svg">
<path fill-rule="evenodd" clip-rule="evenodd" d="M39.233 24.2H87.6C90.356 24.2 92.6 26.443 92.6 29.2V68.7C92.6 71.457 90.357 73.7 87.6 73.7H73.314L86.608 86.993C86.999 87.384 86.999 88.016 86.608 88.407C86.413 88.602 86.157 88.7 85.901 88.7C85.645 88.7 85.389 88.602 85.194 88.407L70.487 73.7H59.8V87.7C59.8 88.253 59.353 88.7 58.8 88.7C58.247 88.7 57.8 88.253 57.8 87.7V73.7H47.211L32.405 88.409C32.21 88.603 31.955 88.7 31.7 88.7C31.444 88.7 31.186 88.601 30.991 88.405C30.602 88.012 30.604 87.38 30.996 86.991L44.375 73.7H28.3C25.543 73.7 23.3 71.457 23.3 68.7V44.49C17.366 42.865 13 37.449 13 31C13 23.268 19.268 17 27 17C32.263 17 36.842 19.907 39.233 24.2ZM22 36.1C22 36.652 22.448 37.1 23 37.1H26.5V39.4C26.5 39.952 26.948 40.4 27.5 40.4C28.052 40.4 28.5 39.952 28.5 39.4V37.1H29.2C31.277 37.1 32.8 35.427 32.8 33.5C32.8 31.548 31.152 29.9 29.2 29.9H25.6C24.677 29.9 24 29.173 24 28.3C24 27.452 24.752 26.7 25.6 26.7H30.8C31.352 26.7 31.8 26.252 31.8 25.7C31.8 25.148 31.352 24.7 30.8 24.7H28.5V23C28.5 22.448 28.052 22 27.5 22C26.948 22 26.5 22.448 26.5 23V24.7H25.6C23.648 24.7 22 26.348 22 28.3C22 30.227 23.523 31.9 25.6 31.9H29.2C30.048 31.9 30.8 32.652 30.8 33.5C30.8 34.373 30.123 35.1 29.2 35.1H27.508H27.5H27.492H23C22.448 35.1 22 35.548 22 36.1ZM25.3 64.6H90.6V29.2C90.6 27.546 89.254 26.2 87.6 26.2H40.138C40.686 27.699 41 29.311 41 31C41 38.732 34.732 45 27 45C26.423 45 25.858 44.954 25.3 44.887V64.6ZM78.822 34.914C78.823 34.915 78.824 34.916 78.824 34.917C78.871 35.029 78.889 35.147 78.893 35.264C78.893 35.2705 78.8948 35.2762 78.8965 35.282C78.8983 35.2878 78.9 35.2935 78.9 35.3V42.5C78.9 43.052 78.453 43.5 77.9 43.5C77.347 43.5 76.9 43.052 76.9 42.5V37.714L60.907 53.707C60.516 54.098 59.884 54.098 59.493 53.707L49.602 43.816L36.309 57.204C36.114 57.401 35.857 57.5 35.6 57.5C35.345 57.5 35.09 57.403 34.895 57.21C34.503 56.82 34.501 56.188 34.89 55.796L48.89 41.695C49.077 41.507 49.332 41.4 49.598 41.4H49.6C49.865 41.4 50.12 41.505 50.307 41.693L60.2 51.586L75.486 36.3H69.4C68.847 36.3 68.4 35.852 68.4 35.3C68.4 34.748 68.847 34.3 69.4 34.3H77.9C78.022 34.3 78.138 34.328 78.249 34.37C78.2742 34.3792 78.2976 34.3912 78.3215 34.4035C78.3289 34.4074 78.3364 34.4112 78.344 34.415C78.42 34.453 78.488 34.499 78.552 34.555C78.578 34.578 78.604 34.598 78.628 34.624C78.701 34.702 78.762 34.789 78.807 34.889C78.811 34.898 78.818 34.905 78.822 34.914Z" fill="black"/>
</svg>
