<svg width="104" height="104" viewBox="0 0 104 104" fill="none" xmlns="http://www.w3.org/2000/svg">
<path fill-rule="evenodd" clip-rule="evenodd" d="M50.261 14.5983C50.24 14.6003 50.22 14.6003 50.199 14.6003C49.675 14.6003 49.234 14.1913 49.202 13.6603L48.802 7.06034C48.769 6.50834 49.189 6.03434 49.74 6.00134C50.295 5.97334 50.766 6.38734 50.799 6.93934L51.199 13.5393C51.232 14.0913 50.812 14.5653 50.261 14.5983ZM55.258 21.6393C55.371 21.6813 55.487 21.7003 55.601 21.7003C56.009 21.7003 56.393 21.4483 56.54 21.0423L60.84 9.24234C61.029 8.72334 60.762 8.14935 60.243 7.96035C59.722 7.77135 59.149 8.03935 58.961 8.55735L54.661 20.3573C54.472 20.8763 54.739 21.4503 55.258 21.6393ZM45.101 19.9003C44.762 19.9003 44.431 19.7273 44.243 19.4153L40.043 12.4143C39.759 11.9403 39.912 11.3263 40.386 11.0423C40.86 10.7593 41.474 10.9113 41.758 11.3853L45.958 18.3853C46.242 18.8593 46.089 19.4733 45.615 19.7573C45.454 19.8543 45.276 19.9003 45.101 19.9003ZM75.353 66.9793L88.453 88.4793C88.741 88.9513 88.592 89.5663 88.12 89.8533C87.648 90.1423 87.032 89.9923 86.746 89.5203L74.171 68.8813L58.166 78.8273L66.156 92.0823C66.441 92.5563 66.289 93.1703 65.816 93.4553C65.654 93.5533 65.476 93.5993 65.3 93.5993C64.962 93.5993 64.631 93.4283 64.443 93.1163L55.943 79.0163C55.661 78.5473 55.807 77.9393 56.271 77.6503L58.6 76.2033L52.286 64.5853C51.869 65.6063 51.488 66.4423 51.167 66.9993L45.255 77.2373L46.878 78.3843C47.099 78.5403 47.247 78.7793 47.289 79.0483C47.33 79.3163 47.261 79.5893 47.097 79.8063L33.497 97.7053C33.301 97.9633 33.002 98.1003 32.7 98.1003C32.505 98.1003 32.31 98.0433 32.134 97.9283L16.534 87.3283C16.083 87.0213 15.961 86.4103 16.259 85.9533L28.759 66.8533C28.908 66.6263 29.142 66.4693 29.409 66.4183C29.675 66.3693 29.951 66.4283 30.173 66.5843L31.705 67.6673C32.684 62.8503 33.024 58.5163 32.7 54.7883C32.435 50.7303 30.945 47.0913 28.007 43.3153C27.928 43.2203 27.756 43.0283 27.546 42.7943C25.954 41.0163 25.156 40.0243 25.017 39.3043C24.847 38.5613 25.023 37.5053 25.818 36.8983C26.409 36.4493 27.489 36.1223 29.286 37.1283C30.081 37.5903 30.819 38.1003 31.501 38.6243L28.548 33.1343C27.69 31.9203 27.962 30.3283 29.197 29.4013C30.439 28.4683 32.219 28.6643 33.25 29.8433C33.279 29.8763 33.307 29.9113 33.331 29.9483L35.465 33.1653L33.48 27.2093C33.093 26.4993 33.012 25.6453 33.261 24.8483C33.52 24.0183 34.112 23.3413 34.885 22.9903C35.686 22.5873 36.675 22.5293 37.568 22.8443C38.396 23.1373 39.067 23.7363 39.408 24.4863L42.384 32.6373L42.1 28.7733C41.832 27.1913 42.978 25.6323 44.719 25.3163C46.498 25.1533 48.047 26.3903 48.194 28.0093L49.753 48.0993L51.441 45.2863C52.08 44.2803 53.984 41.2863 56.913 43.0433L57.413 43.3433C58.357 43.9103 58.783 45.0093 58.446 46.0173C57.755 48.4073 55.288 56.5433 53.221 62.1573C53.2281 62.168 53.2371 62.1772 53.246 62.1863L53.2461 62.1863L53.2461 62.1864C53.2572 62.1977 53.2683 62.209 53.276 62.2233L60.3 75.1463L70.04 69.0933L65.868 58.5693C64.788 55.9283 65.545 52.8973 67.754 51.0363L75.959 44.2313C76.313 43.9263 76.301 43.4823 76.167 43.1713C76.1 43.0193 75.835 42.5193 75.202 42.5953C73.7972 42.7606 71.3435 43.9935 70.5207 44.407L70.51 44.4123L66.745 46.2953C66.33 46.5043 65.825 46.3973 65.529 46.0403C65.232 45.6833 65.22 45.1693 65.5 44.7983L75.101 32.0983C75.417 31.7263 75.417 31.1773 75.139 30.8523C74.902 30.5563 74.627 30.4993 74.434 30.4993C74.113 30.4993 73.793 30.6583 73.58 30.9253L66.08 40.3243C65.737 40.7563 65.108 40.8283 64.675 40.4823C64.364 40.2333 64.249 39.8383 64.333 39.4743C64.3 39.2923 64.299 39.1043 64.374 38.9213L70.174 24.7213C70.283 24.4783 70.287 24.2823 70.2 24.1023C70.08 23.8543 69.803 23.6553 69.458 23.5693C69.032 23.4723 68.389 23.7553 68.194 24.1463L62.015 38.2013C61.794 38.7063 61.206 38.9373 60.698 38.7143C60.292 38.5363 60.077 38.1213 60.118 37.7033C60.118 37.6838 60.1154 37.6647 60.1128 37.6456L60.1128 37.6456C60.1091 37.619 60.1055 37.5923 60.109 37.5643L61.709 25.7643C61.718 25.7023 61.731 25.6413 61.751 25.5823C61.817 25.3833 61.743 25.2083 61.693 25.1223C61.591 24.9453 61.412 24.8203 61.204 24.7783C60.751 24.6783 60.292 24.9233 60.153 25.2093L57.072 37.9333C57.046 38.0383 57.002 38.1333 56.948 38.2203C56.944 38.2283 56.943 38.2373 56.938 38.2443C56.872 38.3453 56.787 38.4303 56.691 38.5003C56.6727 38.5137 56.6519 38.5238 56.6309 38.5339L56.6308 38.5339C56.6174 38.5404 56.6039 38.5469 56.591 38.5543C56.517 38.5963 56.442 38.6323 56.36 38.6543C56.3516 38.6567 56.3441 38.6607 56.3366 38.6648C56.3321 38.6672 56.3275 38.6697 56.3227 38.6718L56.3166 38.6742C56.3142 38.6751 56.3116 38.6758 56.309 38.6763C56.3002 38.6782 56.2914 38.6786 56.2827 38.6784C56.2761 38.6783 56.2695 38.6778 56.263 38.6774C56.2497 38.6764 56.2365 38.6755 56.223 38.6773C56.2076 38.6796 56.1924 38.6831 56.1773 38.6867C56.1522 38.6925 56.1272 38.6983 56.101 38.6983C56.0648 38.6983 56.0281 38.6924 55.9917 38.6864L55.9916 38.6864L55.9914 38.6863L55.9709 38.683L55.953 38.6803C55.9488 38.6797 55.9446 38.6792 55.9404 38.6788L55.9278 38.6776C55.9166 38.6766 55.9055 38.6756 55.894 38.6733C55.889 38.6723 55.8843 38.6721 55.8795 38.6718L55.8743 38.6715C55.8713 38.6713 55.8682 38.671 55.865 38.6703C55.8366 38.6637 55.8122 38.6501 55.7877 38.6364C55.7716 38.6275 55.7554 38.6185 55.738 38.6113L55.7059 38.5989C55.6458 38.5757 55.5866 38.5528 55.534 38.5163C55.4954 38.4896 55.464 38.4558 55.4324 38.4217L55.4324 38.4217L55.4322 38.4216C55.4213 38.4097 55.4103 38.3979 55.399 38.3863C55.3892 38.3766 55.3793 38.367 55.3694 38.3574C55.3328 38.3219 55.2964 38.2867 55.268 38.2433C55.2355 38.1929 55.2155 38.1371 55.1952 38.0804L55.1906 38.0677L55.181 38.0413C55.1741 38.0227 55.165 38.0054 55.1558 37.9882L55.1558 37.9881C55.1423 37.9628 55.129 37.9375 55.123 37.9083L53.522 30.4083C53.508 30.3403 53.5 30.2703 53.5 30.2003C53.5 30.0393 53.332 29.8003 53.101 29.8003C52.891 29.8003 52.704 29.9383 52.604 30.1003L52.802 40.8823C52.812 41.4343 52.372 41.8903 51.82 41.9003H51.801C51.257 41.9003 50.811 41.4643 50.801 40.9183L50.601 29.9183C50.599 29.8053 50.616 29.6923 50.652 29.5843C51.002 28.5333 52.009 27.8003 53.101 27.8003C54.361 27.8003 55.432 28.8323 55.497 30.0803L56.162 33.1983L58.228 24.6653C58.237 24.6263 58.249 24.5873 58.263 24.5493C58.734 23.2933 60.24 22.5153 61.617 22.8243C62.367 22.9743 63.033 23.4483 63.423 24.1203C63.779 24.7313 63.87 25.4533 63.68 26.1153L63.027 30.9363L66.385 23.2983C67.014 22.0383 68.551 21.3203 69.917 21.6243C70.871 21.8613 71.621 22.4463 72.001 23.2333C72.349 23.9523 72.352 24.7623 72.01 25.5133L68.518 34.0633L72.018 29.6763C72.617 28.9273 73.497 28.4983 74.434 28.4983H74.435C75.314 28.4983 76.132 28.8903 76.68 29.5753C77.571 30.6143 77.572 32.2843 76.659 33.3503L69.672 42.5953C71.337 41.7593 73.429 40.7903 74.982 40.6073C76.296 40.4723 77.482 41.1643 78.005 42.3803C78.527 43.5923 78.23 44.9183 77.249 45.7593L69.038 52.5703C67.5 53.8643 66.971 55.9763 67.725 57.8223L71.768 68.0193L73.971 66.6503C74.198 66.5103 74.472 66.4643 74.731 66.5273C74.991 66.5883 75.214 66.7513 75.353 66.9793ZM43.614 76.0783L49.434 66.0003C51.199 62.9363 55.26 49.8443 56.54 45.4243C56.603 45.2363 56.466 45.1063 56.387 45.0593L55.887 44.7593L55.8861 44.7588C55.3253 44.4229 54.6302 44.0066 53.145 46.3393L49.859 51.8173C49.635 52.1903 49.197 52.3753 48.772 52.2753C48.348 52.1753 48.038 51.8133 48.004 51.3793L46.204 28.1793C46.175 27.8643 45.95 27.6473 45.819 27.5463C45.579 27.3623 45.276 27.2713 44.992 27.2983C44.52 27.3883 43.981 27.8953 44.088 28.5373L44.899 39.5283C44.9007 39.5519 44.8962 39.5734 44.8916 39.5951C44.8882 39.6112 44.8849 39.6273 44.884 39.6443C44.909 40.0733 44.669 40.4863 44.244 40.6413C43.725 40.8303 43.151 40.5633 42.962 40.0443L37.562 25.2443C37.474 25.0573 37.223 24.8443 36.904 24.7313C36.522 24.5963 36.102 24.6193 35.749 24.7953C35.366 24.9693 35.226 25.2753 35.174 25.4433C35.082 25.7363 35.113 26.0443 35.258 26.2863C35.295 26.3493 35.326 26.4153 35.349 26.4843L39.706 39.5553L39.834 39.7483C40.139 40.2083 40.013 40.8293 39.553 41.1343C39.386 41.2443 39.2 41.2803 39.014 41.2823C38.9991 41.2843 38.9843 41.2876 38.9694 41.291L38.9693 41.291C38.9462 41.2962 38.9231 41.3013 38.9 41.3013C38.481 41.3013 38.091 41.0363 37.951 40.6173L37.892 40.4393L31.71 31.1183C31.364 30.7653 30.79 30.7093 30.4 31.0003C30.106 31.2203 29.899 31.5983 30.2 32.0003C30.23 32.0413 30.257 32.0833 30.278 32.1263L36.678 44.0263C36.6932 44.0543 36.6999 44.0837 36.7066 44.1132C36.711 44.1323 36.7153 44.1515 36.722 44.1703L36.7289 44.1898L36.7364 44.2103C36.7543 44.2591 36.7719 44.3072 36.779 44.3583C36.7865 44.4123 36.7836 44.4642 36.7807 44.5168L36.779 44.5493L36.778 44.5725C36.7755 44.6275 36.7732 44.6819 36.76 44.7363C36.7468 44.7885 36.7246 44.8358 36.7021 44.884L36.688 44.9143L36.6735 44.9454C36.6521 44.9917 36.6312 45.0368 36.601 45.0793C36.5687 45.1249 36.5274 45.1623 36.4852 45.2005L36.459 45.2243C36.4448 45.2374 36.4324 45.2519 36.42 45.2663L36.42 45.2664L36.42 45.2664C36.4011 45.2885 36.3823 45.3104 36.357 45.3273C36.3496 45.3327 36.3413 45.3352 36.3329 45.3377L36.326 45.3398C36.3209 45.3415 36.3158 45.3434 36.311 45.3463C36.3041 45.3509 36.2985 45.3566 36.2929 45.3622C36.2863 45.3688 36.2797 45.3755 36.271 45.3803C36.186 45.4263 36.096 45.4553 36.006 45.4743C35.9975 45.4758 35.9893 45.4766 35.981 45.4773C35.9728 45.4781 35.9645 45.4788 35.956 45.4803L35.9235 45.4856L35.9234 45.4856C35.882 45.4924 35.8402 45.4993 35.799 45.4993C35.766 45.4993 35.7336 45.4934 35.7009 45.4875C35.687 45.485 35.673 45.4824 35.659 45.4803L35.6483 45.4788C35.6419 45.4781 35.6354 45.4774 35.629 45.4768C35.614 45.4754 35.599 45.4739 35.584 45.4703C35.473 45.4463 35.367 45.4053 35.27 45.3443C35.2591 45.338 35.2495 45.3299 35.2398 45.3218C35.2343 45.3173 35.2288 45.3127 35.223 45.3083C35.142 45.2503 35.07 45.1793 35.008 45.0963C35.003 45.0888 34.9963 45.0833 34.9895 45.0778L34.9839 45.0732C34.9829 45.0723 34.9818 45.0714 34.9808 45.0705C34.9798 45.0695 34.9787 45.0685 34.9777 45.0675C34.9753 45.065 34.973 45.0623 34.971 45.0593C34.945 45.0213 32.336 41.2123 28.297 38.8633C27.467 38.3983 27.083 38.4503 27.035 38.4863C26.983 38.5263 26.939 38.7323 26.97 38.8573C26.979 38.8913 26.985 38.9243 26.99 38.9583C27.1428 39.3407 28.5655 40.9303 29.0368 41.4568L29.039 41.4593C29.27 41.7173 29.458 41.9283 29.568 42.0603C32.784 46.1943 34.407 50.1813 34.698 54.6353C35.056 58.7593 34.651 63.5753 33.494 68.9283L43.614 76.0783ZM20.2 56.9003C22.516 56.9003 24.4 55.0163 24.4 52.7003C24.4 50.3843 22.516 48.5003 20.2 48.5003C17.884 48.5003 16 50.3843 16 52.7003C16 55.0173 17.884 56.9003 20.2 56.9003ZM20.2 50.5003C21.413 50.5003 22.4 51.4873 22.4 52.7003C22.4 53.9133 21.413 54.9003 20.2 54.9003C18.987 54.9003 18 53.9133 18 52.7003C18 51.4873 18.987 50.5003 20.2 50.5003ZM79.215 51.2223C79.264 50.9533 79.421 50.7153 79.65 50.5643C79.878 50.4143 80.158 50.3643 80.428 50.4253L84.998 51.4873L85.815 46.8273C85.911 46.2833 86.431 45.9193 86.973 46.0153C87.516 46.1113 87.88 46.6293 87.785 47.1733L86.785 52.8733C86.737 53.1433 86.58 53.3823 86.351 53.5343C86.122 53.6863 85.842 53.7363 85.573 53.6743L80.998 52.6123L80.284 56.5773C80.197 57.0613 79.776 57.4003 79.301 57.4003C79.242 57.4003 79.183 57.3953 79.123 57.3843C78.579 57.2863 78.217 56.7663 78.315 56.2233L79.215 51.2223ZM19.5 29.9003C20.826 29.9003 21.9 28.8263 21.9 27.5003C21.9 26.1743 20.826 25.1003 19.5 25.1003C18.174 25.1003 17.1 26.1743 17.1 27.5003C17.1 28.8263 18.175 29.9003 19.5 29.9003ZM81.7 21.4003C81.7 22.5049 80.8046 23.4003 79.7 23.4003C78.5954 23.4003 77.7 22.5049 77.7 21.4003C77.7 20.2958 78.5954 19.4003 79.7 19.4003C80.8046 19.4003 81.7 20.2958 81.7 21.4003Z" fill="black"/>
</svg>
