<svg width="104" height="104" viewBox="0 0 104 104" fill="none" xmlns="http://www.w3.org/2000/svg">
<path fill-rule="evenodd" clip-rule="evenodd" d="M28.6 30.7C28.85 30.7 29.1 30.607 29.294 30.42C34.925 24.99 42.314 22 50.1 22C57.744 22 65.102 24.924 70.819 30.233C71.222 30.608 71.857 30.585 72.232 30.181C72.608 29.776 72.585 29.143 72.18 28.767C66.093 23.114 58.251 20 50.1 20C41.793 20 33.911 23.189 27.906 28.98C27.509 29.363 27.497 29.996 27.881 30.394C28.077 30.598 28.338 30.7 28.6 30.7ZM66.524 34.511C66.905 34.911 66.888 35.545 66.489 35.925C66.09 36.305 65.455 36.29 65.075 35.889C61.273 31.892 55.852 29.6 50.2 29.6C44.464 29.6 39.11 31.905 35.124 36.089C34.928 36.296 34.664 36.4 34.4 36.4C34.152 36.4 33.904 36.309 33.711 36.124C33.311 35.743 33.295 35.11 33.676 34.71C38.043 30.125 43.911 27.6 50.2 27.6C56.397 27.6 62.348 30.119 66.524 34.511ZM39.493 40.809C41.977 37.422 45.979 35.4 50.2 35.4C54.253 35.4 58.074 37.288 60.682 40.579C61.026 41.012 60.953 41.641 60.52 41.984C60.088 42.326 59.459 42.254 59.116 41.821C56.887 39.012 53.637 37.4 50.199 37.4C46.613 37.4 43.214 39.116 41.106 41.991C40.909 42.258 40.606 42.4 40.298 42.4C40.093 42.4 39.886 42.337 39.708 42.207C39.263 41.88 39.167 41.254 39.493 40.809ZM24.8 71.5H41.7C42.252 71.5 42.7 71.947 42.7 72.5C42.7 73.053 42.252 73.5 41.7 73.5H24.8C24.248 73.5 23.8 73.053 23.8 72.5C23.8 71.947 24.248 71.5 24.8 71.5ZM25.557 66.854L29.173 62.663L32.521 66.828C32.709 67.062 32.994 67.199 33.294 67.201C33.584 67.197 33.881 67.069 34.072 66.837L37.5 62.674L40.928 66.837C41.126 67.077 41.412 67.201 41.7 67.201C41.924 67.201 42.149 67.126 42.335 66.972C42.761 66.621 42.822 65.992 42.471 65.565L38.271 60.464C37.891 60.003 37.107 60.003 36.727 60.464L33.308 64.615L29.978 60.472C29.792 60.242 29.513 60.104 29.216 60.099C28.917 60.088 28.635 60.221 28.441 60.446L24.041 65.547C23.68 65.965 23.727 66.597 24.145 66.957C24.565 67.318 25.196 67.272 25.557 66.854ZM84.138 42.052L92.456 56.684C94.016 59.526 92.041 63 88.817 63H84.2V77C84.2 78.654 82.854 80 81.2 80H73.6V83.5C73.6 84.1 73.2 84.5 72.6 84.5H63.8C63.2 84.5 62.8 84.1 62.8 83.5V80H37.3V83.5C37.3 84.1 36.8 84.5 36.3 84.5H27.5C26.9 84.5 26.5 84.1 26.5 83.5V80H19C17.346 80 16 78.654 16 77V50.7C16 49.046 17.346 47.7 19 47.7H44.694C45.166 45.085 47.449 43.1 50.2 43.1C52.951 43.1 55.234 45.085 55.706 47.7H73.1C73.275 47.7 73.431 47.757 73.573 47.835L76.86 42.052C78.42 39.315 82.474 39.315 84.138 42.052ZM80.6 46.1C80.048 46.1 79.6 46.548 79.6 47.1V52C79.6 52.552 80.048 53 80.6 53C81.152 53 81.6 52.552 81.6 52V47.1C81.6 46.548 81.152 46.1 80.6 46.1ZM82.2 56.7C82.2 55.816 81.484 55.1 80.6 55.1C79.716 55.1 79 55.816 79 56.7C79 57.584 79.716 58.3 80.6 58.3C81.484 58.3 82.2 57.584 82.2 56.7ZM81.2 78C81.752 78 82.2 77.552 82.2 77V63H72.182C68.96 63 66.984 59.526 68.544 56.684L72.514 49.7H55.706C55.234 52.315 52.951 54.3 50.2 54.3C47.449 54.3 45.166 52.315 44.694 49.7H19C18.449 49.7 18 50.149 18 50.7V77C18 77.552 18.449 78 19 78H81.2Z" fill="black"/>
</svg>
