<svg width="104" height="104" viewBox="0 0 104 104" fill="none" xmlns="http://www.w3.org/2000/svg">
<path fill-rule="evenodd" clip-rule="evenodd" d="M80.9 59.5751H58V34.8901C59.557 34.9081 61.083 34.0401 61.8 32.4751C62.3 31.3751 63.3 30.4751 64.5 30.1751C67 29.5751 68.3 26.6751 67.1 24.3751C66.5 23.2751 66.5 21.9751 67 20.8751C68.1 18.5751 66.7 15.7751 64.1 15.2751C62.9 15.0751 61.9 14.2751 61.3 13.1751C60.1 10.8751 57.1 10.2751 55.1 11.9751C54.2 12.7751 52.9 13.0751 51.7 12.8751C49.2 12.3751 46.8 14.3751 46.9 16.9751C47 18.1751 46.4 19.3751 45.5 20.1751C45.4316 20.2327 45.3757 20.2979 45.3198 20.3631C45.2873 20.4009 45.2549 20.4388 45.22 20.4751H25C21.14 20.4751 18 23.6151 18 27.4751V87.4751C18 91.3341 21.14 94.4751 25 94.4751H47H51H80.9C83.657 94.4751 85.9 92.2321 85.9 89.4751V81.2761V78.6751V64.5751C85.9 61.8181 83.657 59.5751 80.9 59.5751ZM50.58 22.6821C50.963 22.2841 51.596 22.2721 51.994 22.6551L54.004 24.5911L59.611 19.2511C60.011 18.8701 60.644 18.8861 61.025 19.2851C61.406 19.6851 61.39 20.3181 60.991 20.6991L54.691 26.6991C54.303 27.0681 53.693 27.0671 53.308 26.6951L50.608 24.0951C50.208 23.7121 50.197 23.0791 50.58 22.6821ZM20 27.4751C20 24.7181 22.243 22.4751 25 22.4751H44.146C43.849 23.9531 44.372 25.5631 45.7 26.5751C46.7 27.2751 47.3 28.4751 47.3 29.6751C47.3 32.2751 49.8 34.1751 52.1 33.3751C53.3 33.0751 54.6 33.3751 55.6 34.0751C55.6843 34.1395 55.7744 34.188 55.8643 34.2365C55.9098 34.261 55.9553 34.2855 56 34.3121V41.5431C55.152 42.3111 52.37 44.6121 47.918 46.2131C47.751 44.8401 47.321 43.5381 46.66 42.4651C44.836 39.3871 41.518 37.4751 38 37.4751C34.484 37.4751 31.169 39.3841 29.344 42.4581C28.679 43.5411 28.252 44.7681 28.037 46.1971C23.612 44.5961 20.844 42.3091 19.999 41.5431V27.4751H20ZM38.1 49.9751C40.355 49.9751 42.299 51.5511 42.871 53.7181C41.424 54.8501 39.678 55.4761 37.899 55.4761C36.088 55.4761 34.45 54.9331 33.091 53.8771C33.609 51.6281 35.591 49.9751 37.9 49.9751H38.1ZM36 45.9751C36 44.8351 36.86 43.9751 38 43.9751C39.14 43.9751 40 44.8351 40 45.9751C40 47.0591 39.13 47.9751 38.1 47.9751H37.944H37.9C36.87 47.9751 36 47.0591 36 45.9751ZM40.98 48.6181C41.604 47.9061 42 46.9811 42 45.9751C42 43.7321 40.243 41.9751 38 41.9751C35.757 41.9751 34 43.7321 34 45.9751C34 46.9821 34.396 47.9061 35.02 48.6181C33.446 49.3491 32.172 50.6571 31.49 52.2911C30.559 51.0671 30.005 49.5271 29.921 47.9401C29.9254 47.929 29.9312 47.919 29.937 47.9089C29.9443 47.8962 29.9515 47.8836 29.956 47.8691C30.021 47.6581 29.996 47.4471 29.929 47.2541C30.05 45.7771 30.412 44.5391 31.053 43.5001L31.062 43.4851C32.549 40.9741 35.144 39.4751 38.001 39.4751C40.858 39.4751 43.453 40.9741 44.949 43.4991C45.626 44.6011 46 46.0131 46 47.4751C46 47.7591 46 48.1131 45.951 48.2591C45.931 48.3181 45.917 48.3791 45.909 48.4401C45.729 49.7591 45.204 51.0271 44.428 52.1031C43.729 50.5571 42.493 49.3211 40.98 48.6181ZM56 87.4741C56 90.2311 53.757 92.4751 51 92.4751H47H25C22.243 92.4751 20 90.2321 20 87.4751V44.1361C21.587 45.3401 24.261 47.0351 27.943 48.2781C28.151 50.8871 29.346 53.3321 31.216 54.9041C32.985 56.5621 35.359 57.4751 37.9 57.4751C40.233 57.4751 42.514 56.6241 44.359 55.0871C44.585 54.9981 44.761 54.8381 44.87 54.6291C46.489 53.0831 47.555 51.0331 47.879 48.7911C47.9198 48.6463 47.9366 48.4954 47.9531 48.3458L47.957 48.3111C51.69 47.0651 54.398 45.3501 56 44.1351V87.4741ZM83.9 89.4751C83.9 91.1291 82.554 92.4751 80.9 92.4751H55.889C57.189 91.2031 58 89.4331 58 87.4751V86.2761H80.9C82.03 86.2761 83.062 85.8851 83.9 85.2501V89.4751ZM83.9 78.6751V81.2761C83.9 82.9301 82.554 84.2761 80.9 84.2761H58V61.5761H80.9C82.554 61.5761 83.9 62.9221 83.9 64.5761V78.6751ZM50 62.9761H26C25.448 62.9761 25 63.4231 25 63.9761C25 64.5291 25.448 64.9761 26 64.9761H50C50.552 64.9761 51 64.5291 51 63.9761C51 63.4231 50.552 62.9761 50 62.9761ZM44 70.9751C44.552 70.9751 45 70.5281 45 69.9751C45 69.4221 44.552 68.9751 44 68.9751H32C31.448 68.9751 31 69.4221 31 69.9751C31 70.5281 31.448 70.9751 32 70.9751H44ZM49 78.4751C50.1 78.4751 51 79.3751 51 80.4751V84.4751C51 85.5751 50.1 86.4751 49 86.4751H27C25.9 86.4751 25 85.5751 25 84.4751V80.4751C25 79.3751 25.9 78.4751 27 78.4751H49ZM75.293 66.7681C75.684 66.3771 76.316 66.3771 76.707 66.7681L80.107 70.1681C80.498 70.5591 80.498 71.1911 80.107 71.5821C79.716 71.9731 79.084 71.9731 78.693 71.5821L76 68.8891L73.307 71.5821C73.12 71.7701 72.866 71.8751 72.6 71.8751C72.334 71.8751 72.081 71.7701 71.893 71.5821L69.222 68.9111L66.729 71.5601C66.348 71.9631 65.717 71.9811 65.315 71.6031C64.913 71.2241 64.894 70.5911 65.272 70.1891L68.472 66.7891C68.658 66.5921 68.915 66.4791 69.186 66.4751C69.468 66.4751 69.718 66.5771 69.908 66.7681L72.6 69.4611L75.293 66.7681Z" fill="black"/>
</svg>
