<svg width="104" height="104" viewBox="0 0 104 104" fill="none" xmlns="http://www.w3.org/2000/svg">
<path fill-rule="evenodd" clip-rule="evenodd" d="M96.435 35.1545C96.725 35.3375 96.901 35.6575 96.9 36.0015C96.899 36.3455 96.723 36.6645 96.431 36.8475L91.856 39.7065L96.441 42.6595C96.729 42.8455 96.902 43.1655 96.9 43.5075C96.898 43.8495 96.72 44.1665 96.43 44.3485L84.9 51.5545V75.3985H90.1C90.653 75.3985 91.1 75.8455 91.1 76.3985V79.8985C91.1 82.5455 88.946 84.6985 86.3 84.6985H12.8C10.153 84.6985 8 82.5445 8 79.8985V76.3985C8 75.8455 8.448 75.3985 9 75.3985H14.5V36.1985C14.5 32.7245 17.326 29.8985 20.8 29.8985H72.264L71.374 29.3495C71.08 29.1685 70.9 28.8475 70.899 28.5015C70.898 28.1555 71.076 27.8345 71.369 27.6505L83.369 20.1505C83.694 19.9485 84.106 19.9485 84.43 20.1505L96.43 27.6505C96.723 27.8345 96.901 28.1555 96.9 28.5015C96.899 28.8475 96.719 29.1675 96.425 29.3495L91.787 32.2105L96.435 35.1545ZM94.004 28.4935L83.9 22.1785L73.795 28.4935L78.425 31.3485C78.428 31.3505 78.431 31.3525 78.435 31.3545L83.946 34.8445L89.329 31.3775L89.358 31.3585L94.004 28.4935ZM86.3 82.6995C87.844 82.6995 89.1 81.4435 89.1 79.8995V77.4005H57.783C57.341 79.1915 55.679 80.2995 53.3 80.2995H46C43.622 80.2995 41.959 79.1905 41.517 77.3995H10V79.8995C10 81.4435 11.256 82.6995 12.8 82.6995H86.3ZM55.9 76.3995C55.9 75.8465 56.347 75.3995 56.9 75.3995H82.902V51.5545L71.372 44.3485C71.081 44.1665 70.903 43.8475 70.902 43.5035C70.901 43.1595 71.077 42.8395 71.367 42.6555L76.015 39.7115L71.376 36.8515C71.083 36.6715 70.903 36.3515 70.901 36.0065C70.899 35.6615 71.075 35.3405 71.366 35.1555L76.014 32.2115L75.509 31.8995H20.8C18.469 31.8995 16.5 33.8685 16.5 36.1995V75.3995H42.4C42.952 75.3995 43.4 75.8465 43.4 76.3995C43.4 78.0515 45.029 78.2985 46 78.2985H53.299C54.271 78.2985 55.9 78.0515 55.9 76.3995ZM83.9 49.8205L94.034 43.4865L89.981 40.8775L84.428 44.3485C84.267 44.4495 84.084 44.4995 83.9 44.4995C83.715 44.4995 83.528 44.4485 83.365 44.3445L77.9 40.8835L73.778 43.4945L83.9 49.8205ZM24.7 51.9995C24.444 51.9995 24.188 51.9015 23.993 51.7065C23.603 51.3155 23.603 50.6835 23.993 50.2925L26.286 47.9995L23.993 45.7065C23.602 45.3155 23.602 44.6835 23.993 44.2925C24.384 43.9015 25.016 43.9015 25.407 44.2925L28.407 47.2925C28.798 47.6835 28.798 48.3155 28.407 48.7065L25.407 51.7065C25.212 51.9015 24.956 51.9995 24.7 51.9995ZM37.7 51.9995H31.7C31.148 51.9995 30.7 51.5515 30.7 50.9995C30.7 50.4475 31.148 49.9995 31.7 49.9995H37.7C38.252 49.9995 38.7 50.4475 38.7 50.9995C38.7 51.5515 38.252 51.9995 37.7 51.9995ZM30.7 62.1995H24.7C24.148 62.1995 23.7 62.6465 23.7 63.1995C23.7 63.7525 24.148 64.1995 24.7 64.1995H30.7C31.252 64.1995 31.7 63.7525 31.7 63.1995C31.7 62.6465 31.252 62.1995 30.7 62.1995ZM34.7 62.1995H43.7C44.252 62.1995 44.7 62.6465 44.7 63.1995C44.7 63.7525 44.252 64.1995 43.7 64.1995H34.7C34.148 64.1995 33.7 63.7525 33.7 63.1995C33.7 62.6465 34.148 62.1995 34.7 62.1995ZM24.7 58.1995H35.2C35.752 58.1995 36.2 57.7525 36.2 57.1995C36.2 56.6465 35.752 56.1995 35.2 56.1995H24.7C24.148 56.1995 23.7 56.6465 23.7 57.1995C23.7 57.7525 24.148 58.1995 24.7 58.1995ZM39.7 56.1995H45.7C46.252 56.1995 46.7 56.6465 46.7 57.1995C46.7 57.7525 46.252 58.1995 45.7 58.1995H39.7C39.148 58.1995 38.7 57.7525 38.7 57.1995C38.7 56.6465 39.148 56.1995 39.7 56.1995ZM57.7 56.1995H49.7C49.148 56.1995 48.7 56.6465 48.7 57.1995C48.7 57.7525 49.148 58.1995 49.7 58.1995H57.7C58.253 58.1995 58.7 57.7525 58.7 57.1995C58.7 56.6465 58.253 56.1995 57.7 56.1995Z" fill="black"/>
</svg>
