<svg width="104" height="104" viewBox="0 0 104 104" fill="none" xmlns="http://www.w3.org/2000/svg">
<path fill-rule="evenodd" clip-rule="evenodd" d="M61.115 70.2H65H77.2C77.478 70.2 77.744 70.084 77.933 69.88C78.122 69.676 78.218 69.401 78.197 69.124L76.496 46.807C76.041 41.925 72.09 38.1 67.5 38.1H65C64.9901 38.1 64.9812 38.1027 64.9723 38.1055C64.9642 38.108 64.9561 38.1105 64.947 38.111L64.299 18.965C64.079 12.816 59.116 8 53 8C46.883 8 41.92 12.816 41.701 18.966L41.052 38.13C41.0306 38.1271 41.0102 38.1215 40.9898 38.1159C40.9607 38.108 40.9318 38.1 40.9 38.1H38.4C33.81 38.1 29.858 41.925 29.403 46.824L27.703 69.124C27.682 69.401 27.777 69.676 27.967 69.88C28.156 70.084 28.422 70.2 28.7 70.2H41H44.885C44.831 70.323 44.8 70.457 44.8 70.6C44.8 72.005 45.061 73.361 45.529 74.624C41.919 74.754 38.686 76.358 36.407 78.858C35.6 78.773 34.775 78.7 34 78.7C25.178 78.7 18 85.878 18 94.7C18 95.253 18.448 95.7 19 95.7C19.552 95.7 20 95.253 20 94.7C20 86.98 26.28 80.7 34 80.7C34.2841 80.7 34.5893 80.7195 34.8946 80.7389H34.8947H34.8948H34.8949L34.975 80.744C33.731 82.737 33 85.082 33 87.6C33 88.153 33.448 88.6 34 88.6C34.552 88.6 35 88.153 35 87.6C35 81.535 39.935 76.6 46 76.6C46.152 76.6 46.292 76.561 46.421 76.5C47.803 78.826 49.989 80.65 52.684 81.548C52.685 81.548 52.687 81.548 52.688 81.549C52.788 81.582 52.893 81.6 53 81.6C53.107 81.6 53.212 81.582 53.312 81.549C53.314 81.548 53.315 81.549 53.317 81.548C58.033 79.978 61.201 75.577 61.201 70.6C61.2 70.457 61.169 70.323 61.115 70.2ZM43.703 19H62.298C62.298 19.0071 62.2988 19.0141 62.2997 19.0214L62.301 19.034L63.759 62.1H55.521L55.9 53.2C56 51.6 54.6 50.2 52.8 50.1C51.2 50.1 49.8 51.5 49.9 53.2L50.279 62.1H42.242L43.7 19.036C43.7 19.028 43.7009 19.02 43.7018 19.012L43.703 19ZM67.5 40.1C71.067 40.1 74.145 43.127 74.503 46.976L76.121 68.2H65.966L65.014 40.1H67.5ZM31.396 46.993C31.755 43.128 34.832 40.1 38.4 40.1H40.9C40.916 40.1 40.9308 40.0957 40.9458 40.0915C40.9589 40.0877 40.972 40.0839 40.986 40.083L40.033 68.2H29.779L31.396 46.993ZM53 79.532C49.279 78.145 46.8 74.601 46.8 70.6C46.8 70.457 46.768 70.323 46.715 70.201H50.624L50.7 72C50.8 73.2 51.7 74.1 52.9 74.1C54.1 74.1 55.1 73.2 55.1 72L55.177 70.2H59.286C59.232 70.323 59.2 70.457 59.2 70.6C59.2 74.601 56.72 78.145 53 79.532ZM53 36.7C56.363 36.7 59.1 33.964 59.1 30.6C59.1 27.236 56.364 24.5 53 24.5C49.636 24.5 46.9 27.236 46.9 30.6C46.9 33.964 49.636 36.7 53 36.7ZM53 26.5C55.261 26.5 57.1 28.339 57.1 30.6C57.1 32.861 55.261 34.7 53 34.7C50.739 34.7 48.9 32.861 48.9 30.6C48.9 28.339 50.739 26.5 53 26.5ZM81.117 81.839C81.851 81.685 82.613 81.6 83.4 81.6C89.4 81.6 94.1 86.3 94.099 92.3C94.099 92.853 93.652 93.3 93.099 93.3C92.546 93.3 92.099 92.853 92.099 92.3C92.099 87.421 88.278 83.6 83.4 83.6C78.521 83.6 74.7 87.421 74.7 92.3C74.7 92.853 74.253 93.3 73.7 93.3C73.147 93.3 72.7 92.853 72.7 92.3C72.7 87.803 75.34 84.037 79.188 82.432C77.569 78.909 74.071 76.6 70.2 76.6C64.741 76.6 60.3 81.041 60.3 86.5C60.3 87.053 59.853 87.5 59.3 87.5C58.747 87.5 58.3 87.053 58.3 86.5C58.3 79.939 63.638 74.6 70.2 74.6C74.945 74.6 79.226 77.474 81.117 81.839ZM24.586 30.2C24.782 30.4 25.041 30.5 25.3 30.5C25.552 30.5 25.805 30.405 26 30.214L27.85 28.4L29.7 30.214C29.895 30.405 30.148 30.5 30.4 30.5C30.659 30.5 30.918 30.4 31.114 30.2C31.501 29.805 31.494 29.172 31.1 28.786L29.278 27L31.1 25.214C31.494 24.828 31.5 24.194 31.114 23.8C30.728 23.406 30.094 23.399 29.7 23.786L27.85 25.6L26 23.786C25.605 23.4 24.973 23.406 24.586 23.8C24.199 24.195 24.206 24.828 24.6 25.214L26.422 27L24.6 28.786C24.206 29.172 24.199 29.806 24.586 30.2ZM84.407 34.507C83.638 35.277 82.623 35.7 81.55 35.7C80.477 35.7 79.462 35.276 78.693 34.507C77.924 33.738 77.5 32.723 77.5 31.65C77.5 30.577 77.923 29.562 78.693 28.793C79.084 28.402 79.716 28.402 80.107 28.793C80.498 29.184 80.498 29.816 80.107 30.207C79.716 30.599 79.5 31.111 79.5 31.65C79.5 32.189 79.715 32.701 80.107 33.093C80.89 33.876 82.21 33.876 82.993 33.093C83.384 32.702 84.016 32.702 84.407 33.093C84.798 33.484 84.798 34.116 84.407 34.507Z" fill="black"/>
</svg>
