<svg width="104" height="104" viewBox="0 0 104 104" fill="none" xmlns="http://www.w3.org/2000/svg">
<path fill-rule="evenodd" clip-rule="evenodd" d="M78 66.2H87.2C89.4 66.2 91.2 68 91.2 70.2V85C91.2 87.2 89.4 89 87.2 89H17C14.8 89 13 87.2 13 85V70.2C13 68 14.8 66.2 17 66.2H26V44.854C26 39.42 30.926 35 36.98 35H38.5V26.6C38.5 19.101 44.601 13 52.1 13C55.721 13 59.133 14.418 61.707 16.993C64.282 19.568 65.7 22.98 65.7 26.6V35H67.02C73.074 35 78 39.42 78 44.854V66.2ZM52.1 15C45.704 15 40.5 20.204 40.5 26.6V35H63.7V26.6C63.7 23.514 62.49 20.604 60.293 18.407C58.096 16.21 55.186 15 52.1 15ZM36.98 37C32.028 37 28 40.523 28 44.854V66.2H76V44.854C76 40.523 71.972 37 67.02 37H36.98ZM29.231 78.4H31.9C32.342 78.4 32.7 78.042 32.7 77.6C32.7 77.158 32.342 76.8 31.9 76.8H29.131L31.065 74.866C31.377 74.554 31.377 74.047 31.065 73.735C30.753 73.423 30.246 73.423 29.934 73.735L28.1 75.569V73C28.1 72.558 27.742 72.2 27.3 72.2C26.858 72.2 26.5 72.558 26.5 73V75.669L24.566 73.735C24.254 73.423 23.747 73.423 23.435 73.735C23.123 74.047 23.123 74.554 23.435 74.866L25.369 76.8H22.7C22.258 76.8 21.9 77.158 21.9 77.6C21.9 78.042 22.258 78.4 22.7 78.4H25.269L23.435 80.234C23.123 80.546 23.123 81.053 23.435 81.365C23.747 81.677 24.254 81.677 24.566 81.365L26.5 79.431V82.2C26.5 82.642 26.858 83 27.3 83C27.742 83 28.1 82.642 28.1 82.2V79.531L29.934 81.365C30.246 81.677 30.753 81.677 31.065 81.365C31.377 81.053 31.377 80.546 31.065 80.234L29.231 78.4ZM45.76 78.4H48.4C48.842 78.4 49.2 78.042 49.2 77.6C49.2 77.158 48.842 76.8 48.4 76.8H45.661L47.57 74.861C47.88 74.547 47.876 74.04 47.561 73.73C47.247 73.42 46.74 73.424 46.43 73.739L44.6 75.597V73C44.6 72.558 44.242 72.2 43.8 72.2C43.358 72.2 43 72.558 43 73V75.597L41.17 73.74C40.86 73.425 40.354 73.421 40.039 73.731C39.724 74.041 39.72 74.547 40.03 74.862L41.939 76.801H39.2C38.758 76.801 38.4 77.159 38.4 77.601C38.4 78.043 38.758 78.401 39.2 78.401H41.84L40.03 80.24C39.72 80.554 39.724 81.061 40.039 81.371C40.353 81.681 40.86 81.677 41.17 81.362L43 79.503V82.2C43 82.642 43.358 83 43.8 83C44.242 83 44.6 82.642 44.6 82.2V79.503L46.43 81.361C46.74 81.676 47.246 81.68 47.561 81.37C47.876 81.06 47.88 80.554 47.57 80.239L45.76 78.4ZM62.331 78.4H64.9C65.342 78.4 65.7 78.042 65.7 77.6C65.7 77.158 65.342 76.8 64.9 76.8H62.231L64.165 74.866C64.477 74.554 64.477 74.047 64.165 73.735C63.853 73.423 63.346 73.423 63.034 73.735L61.1 75.669V73C61.1 72.558 60.742 72.2 60.3 72.2C59.858 72.2 59.5 72.558 59.5 73V75.569L57.666 73.735C57.354 73.423 56.847 73.423 56.535 73.735C56.223 74.047 56.223 74.554 56.535 74.866L58.469 76.8H55.7C55.258 76.8 54.9 77.158 54.9 77.6C54.9 78.042 55.258 78.4 55.7 78.4H58.369L56.535 80.234C56.223 80.546 56.223 81.053 56.535 81.365C56.847 81.677 57.354 81.677 57.666 81.365L59.5 79.531V82.2C59.5 82.642 59.858 83 60.3 83C60.742 83 61.1 82.642 61.1 82.2V79.431L63.034 81.365C63.346 81.677 63.853 81.677 64.165 81.365C64.477 81.053 64.477 80.546 64.165 80.234L62.331 78.4ZM78.831 78.4H81.4C81.842 78.4 82.2 78.042 82.2 77.6C82.2 77.158 81.842 76.8 81.4 76.8H78.731L80.665 74.866C80.977 74.554 80.977 74.047 80.665 73.735C80.353 73.423 79.846 73.423 79.534 73.735L77.7 75.569V73C77.7 72.558 77.342 72.2 76.9 72.2C76.458 72.2 76.1 72.558 76.1 73V75.669L74.166 73.735C73.854 73.423 73.347 73.423 73.035 73.735C72.723 74.047 72.723 74.554 73.035 74.866L74.969 76.8H72.3C71.858 76.8 71.5 77.158 71.5 77.6C71.5 78.042 71.858 78.4 72.3 78.4H74.869L73.035 80.234C72.723 80.546 72.723 81.053 73.035 81.365C73.347 81.677 73.854 81.677 74.166 81.365L76.1 79.431V82.2C76.1 82.642 76.458 83 76.9 83C77.342 83 77.7 82.642 77.7 82.2V79.531L79.534 81.365C79.846 81.677 80.353 81.677 80.665 81.365C80.977 81.053 80.977 80.546 80.665 80.234L78.831 78.4ZM47.2 51.8C47.2 49.094 49.394 46.9 52.1 46.9C54.806 46.9 57 49.094 57 51.8C57 53.869 55.714 55.63 53.9 56.348V61.2H50.3V56.348C48.487 55.63 47.2 53.869 47.2 51.8Z" fill="black"/>
</svg>
