<svg width="104" height="104" viewBox="0 0 104 104" fill="none" xmlns="http://www.w3.org/2000/svg">
<path fill-rule="evenodd" clip-rule="evenodd" d="M65 37.05C72.816 37.567 79 44.053 79 52C79 59.947 72.816 66.433 65 66.95V82C65 85.859 61.859 89 58 89H32C28.14 89 25 85.859 25 82V22C25 18.14 28.14 15 32 15H58C61.859 15 65 18.14 65 22V37.05ZM69.1 44.8L68.2 46.6L66.3 46.9L67.7 48.2L67.3 50.2L69.1 49.3L70.8 50.2L70.5 48.3L71.9 46.9L70 46.6L69.1 44.8ZM32 87H58C60.757 87 63 84.757 63 82V66.95C55.184 66.433 49 59.947 49 52C49 44.053 55.184 37.567 63 37.05V22C63 19.243 60.757 17 58 17H32C29.243 17 27 19.243 27 22V82C27 84.757 29.243 87 32 87ZM55.5 51.8C55.5 56.7 59.5 60.6 64.3 60.6C68 60.5 71.2 58.2 72.5 54.9C71.5 55.3 70.5 55.5 69.4 55.5C64.5 55.5 60.6 51.5 60.6 46.7C60.6 45.6 60.8 44.5 61.2 43.6C57.9 44.9 55.5 48.1 55.5 51.8ZM42.2 19H47.8C48.352 19 48.8 19.448 48.8 20C48.8 20.552 48.352 21 47.8 21H42.2C41.648 21 41.2 20.552 41.2 20C41.2 19.448 41.648 19 42.2 19Z" fill="black"/>
</svg>
