<svg width="104" height="104" viewBox="0 0 104 104" fill="none" xmlns="http://www.w3.org/2000/svg">
<path fill-rule="evenodd" clip-rule="evenodd" d="M85 23C85 16.373 79.627 11 73 11C67.411 11 62.727 14.827 61.393 20H44C40.14 20 37 23.14 37 27V52H24C21.196 52 19 54.196 19 57V77C19 79.757 21.243 82 24 82H37V87C37 90.859 40.14 94 44 94H70C73.859 94 77 90.859 77 87V34.303C81.658 32.654 85 28.223 85 23ZM24 54H56C57.654 54 59 55.346 59 57V67H21V57C21 55.29 22.29 54 24 54ZM21 77V75H59V77C59 78.654 57.654 80 56 80H24C22.346 80 21 78.654 21 77ZM75 87C75 89.757 72.757 92 70 92H44C41.243 92 39 89.757 39 87V82H56C58.757 82 61 79.757 61 77V57C61 54.243 58.757 52 56 52H39V27C39 24.243 41.243 22 44 22H61.05C61.023 22.331 61 22.662 61 23C61 29.627 66.373 35 73 35C73.683 35 74.348 34.93 75 34.82V87ZM78.19 20.724L71.89 26.724C71.502 27.093 70.892 27.092 70.507 26.72L67.807 24.12C67.409 23.737 67.397 23.104 67.78 22.706C68.163 22.308 68.796 22.296 69.194 22.679L71.204 24.615L76.811 19.275C77.211 18.894 77.844 18.91 78.225 19.309C78.605 19.71 78.59 20.343 78.19 20.724ZM59 26H55C54.447 26 54 26.448 54 27C54 27.552 54.447 28 55 28H59C59.553 28 60 27.552 60 27C60 26.448 59.553 26 59 26ZM51 62.2C50.5 62.7 49.8 62.9 49 62.9C47.3 62.9 46 61.6 46 59.9C46 58.2 47.3 56.9 49 56.9C49.8 56.9 50.5 57.2 51 57.6C51.5 57.1 52.2 56.9 53 56.9C54.7 56.9 56 58.2 56 59.9C56 61.6 54.7 62.9 53 62.9C52.2 63 51.5 62.7 51 62.2Z" fill="black"/>
</svg>
