<svg width="104" height="104" viewBox="0 0 104 104" fill="none" xmlns="http://www.w3.org/2000/svg">
<path d="M89 90.6996H75.7V83.7696L81.138 79.2696C81.564 78.9166 81.622 78.2876 81.271 77.8616C80.917 77.4346 80.288 77.3766 79.863 77.7286L75.7 81.1736V70.6996C75.7 70.1466 75.253 69.6996 74.7 69.6996C74.147 69.6996 73.7 70.1466 73.7 70.6996V74.3856L69.507 70.1926C69.116 69.8016 68.484 69.8016 68.093 70.1926C67.702 70.5836 67.702 71.2156 68.093 71.6066L73.7 77.2136V90.6996H68.166C67.821 86.5536 64.45 83.3996 60.2 83.3996C59.293 83.3996 58.375 83.5906 57.5 83.9146V59.6996H77.6C78.153 59.6996 78.6 59.2526 78.6 58.6996V40.6996C78.6 33.5316 72.768 27.6996 65.6 27.6996H60.4V23.8336L70.627 19.0046C70.977 18.8396 71.2 18.4866 71.2 18.1006C71.2 17.7146 70.976 17.3616 70.627 17.1966L59.827 12.0966C59.516 11.9506 59.154 11.9726 58.865 12.1566C58.576 12.3386 58.4 12.6566 58.4 12.9996V13.8996V23.1996V27.6996H35.5C28.332 27.6996 22.5 33.5316 22.5 40.6996V58.2526L19.033 61.3546C17.392 62.8256 16.839 65.1006 17.624 67.1516C18.414 69.2166 20.283 70.4996 22.5 70.4996H26.6C32.83 70.4996 38.219 68.3236 43.574 63.6386L46.5 60.9676V79.8396C45.106 79.1596 43.58 78.8006 42 78.8006C36.321 78.8006 31.7 83.4206 31.7 89.1006C31.7 89.6456 31.765 90.1806 31.859 90.7016H27.3V81.3016C27.3 80.7486 26.852 80.3016 26.3 80.3016C25.748 80.3016 25.3 80.7486 25.3 81.3016V85.4086L21.729 82.5236C21.3 82.1766 20.669 82.2446 20.323 82.6736C19.976 83.1026 20.043 83.7326 20.472 84.0796L25.3 87.9796V90.6996H15C14.448 90.6996 14 91.1466 14 91.6996C14 92.2526 14.448 92.6996 15 92.6996H47.5H56.5H89C89.553 92.6996 90 92.2526 90 91.6996C90 91.1466 89.553 90.6996 89 90.6996ZM60.2 85.3996C63.327 85.3996 65.821 87.6776 66.158 90.6996H57.5V86.0916C58.347 85.6516 59.284 85.3996 60.2 85.3996ZM58.4 29.6996V34.5996C58.4 35.1516 58.847 35.5996 59.4 35.5996C59.953 35.5996 60.4 35.1516 60.4 34.5996V29.6996H65.6C71.665 29.6996 76.6 34.6346 76.6 40.6996V57.6996H56.5H48.5V40.6996C48.5 36.0656 46.056 32.0016 42.397 29.6996H58.4ZM42.241 62.1466C37.288 66.4806 32.318 68.4996 26.6 68.4996H22.5C20.864 68.4996 19.873 67.4346 19.492 66.4376C19.105 65.4266 19.132 63.9526 20.367 62.8446L23.882 59.6996H44.922L42.241 62.1466ZM33.7 89.0996C33.7 84.5236 37.423 80.7996 42 80.7996C43.616 80.7996 45.155 81.2806 46.5 82.1526V90.6996H33.897C33.784 90.1656 33.7 89.6226 33.7 89.0996ZM48.5 90.6996V59.6996H55.5V90.6996H48.5Z" fill="black"/>
</svg>
