<svg width="104" height="104" viewBox="0 0 104 104" fill="none" xmlns="http://www.w3.org/2000/svg">
<path fill-rule="evenodd" clip-rule="evenodd" d="M93.5 43C93.5 46.3 90.8 49 87.5 49H85.9V79.2H91.1C91.653 79.2 92.1 79.647 92.1 80.2V83.7C92.1 86.347 89.946 88.5 87.3 88.5H13.8C11.153 88.5 9 86.346 9 83.7V80.2C9 79.647 9.448 79.2 10 79.2H15.5V40C15.5 36.526 18.326 33.7 21.8 33.7H61.5V23C61.5 19.7 64.2 17 67.5 17H87.5C90.8 17 93.5 19.7 93.5 23V43ZM86.6 32.8C86.6 27.94 82.66 24 77.8 24C72.94 24 69 27.94 69 32.8C69 37.66 72.94 41.6 77.8 41.6C82.66 41.6 86.6 37.66 86.6 32.8ZM87.3 86.5C88.844 86.5 90.1 85.244 90.1 83.7V81.201H58.783C58.341 82.992 56.679 84.1 54.3 84.1H47C44.622 84.1 42.959 82.991 42.517 81.2H11V83.7C11 85.244 12.256 86.5 13.8 86.5H87.3ZM57.9 79.2H83.9V49H67.5C64.2 49 61.5 46.3 61.5 43V35.7H21.8C19.469 35.7 17.5 37.669 17.5 40V79.2H43.4C43.952 79.2 44.4 79.647 44.4 80.2C44.4 81.852 46.029 82.099 47 82.099H54.299C55.271 82.099 56.9 81.852 56.9 80.2C56.9 79.647 57.347 79.2 57.9 79.2ZM77.8 39.6C81.555 39.6 84.6 36.556 84.6 32.8C84.6 29.044 81.555 26 77.8 26C74.045 26 71 29.044 71 32.8C71 36.556 74.044 39.6 77.8 39.6ZM77.8 30C79.346 30 80.6 31.254 80.6 32.8C80.6 34.346 79.346 35.6 77.8 35.6C76.254 35.6 75 34.346 75 32.8C75 31.254 76.254 30 77.8 30ZM41.2 58.9C41 60.7 39.4 62.1 37.5 62.1C35.4 62.1 33.8 60.4 33.8 58.4V57.8C34.1 56 35.6 54.6 37.5 54.6H37.9C38.6 54.8 39.3 55.1 39.9 55.6C40.7 56.3 41.2 57.3 41.2 58.4V58.9ZM37.4 63.7H41.6C43.1 63.7 44.4 64.8 44.6 66.2L45.4 71.5H29.5L30.3 66.2C30.5 64.7 31.7 63.7 33.2 63.7H37.4ZM59.7 63.7C58.2 63.7 57 64.7 56.8 66.2L56 71.5H71.9L71.1 66.2C70.9 64.8 69.6 63.7 68.1 63.7H63.9H59.7ZM64 54.6H64.4C65.1 54.8 65.8 55.1 66.4 55.6C67.2 56.3 67.7 57.3 67.7 58.4V58.9C67.5 60.7 65.9 62.1 64 62.1C61.9 62.1 60.3 60.4 60.3 58.4V57.8C60.6 56 62.1 54.6 64 54.6Z" fill="black"/>
</svg>
