<svg width="104" height="104" viewBox="0 0 104 104" fill="none" xmlns="http://www.w3.org/2000/svg">
<path fill-rule="evenodd" clip-rule="evenodd" d="M70 64.5C69.447 64.5 69 64.947 69 65.5V78C69 80.757 66.757 83 64 83H45.387C45.784 81.703 46 80.327 46 78.9C46 71.506 40.263 65.465 33 64.95V18C33 15.243 35.243 13 38 13H64C66.757 13 69 15.243 69 18V23.4C69 23.952 69.447 24.4 70 24.4C70.553 24.4 71 23.952 71 23.4V18C71 14.14 67.859 11 64 11H38C34.14 11 31 14.14 31 18V64.951C23.737 65.466 18 71.506 18 78.901C18 86.633 24.268 92.901 32 92.901C37.542 92.901 42.318 89.672 44.586 85.001H64C67.859 85.001 71 81.86 71 78.001V65.5C71 64.947 70.553 64.5 70 64.5ZM33.7 85.1H33V87.4C33 87.952 32.552 88.4 32 88.4C31.448 88.4 31 87.952 31 87.4V85.1H27.5C26.948 85.1 26.5 84.652 26.5 84.1C26.5 83.548 26.948 83.1 27.5 83.1H33.7C34.623 83.1 35.3 82.373 35.3 81.5C35.3 80.652 34.548 79.9 33.7 79.9H30.1C28.023 79.9 26.5 78.227 26.5 76.3C26.5 74.348 28.148 72.7 30.1 72.7H31V70.5C31 69.948 31.448 69.5 32 69.5C32.552 69.5 33 69.948 33 70.5V72.7H35.3C35.852 72.7 36.3 73.148 36.3 73.7C36.3 74.252 35.852 74.7 35.3 74.7H30.1C29.252 74.7 28.5 75.452 28.5 76.3C28.5 77.173 29.177 77.9 30.1 77.9H33.7C35.652 77.9 37.3 79.548 37.3 81.5C37.3 83.427 35.777 85.1 33.7 85.1ZM54.7 16C54.7 15.448 54.253 15 53.7 15H48.2C47.648 15 47.2 15.448 47.2 16C47.2 16.552 47.648 17 48.2 17H53.7C54.253 17 54.7 16.552 54.7 16ZM58.9 28.2H67.9C68.453 28.2 68.9 28.648 68.9 29.2C68.9 29.752 68.453 30.2 67.9 30.2H58.9C57.161 30.2 55.799 31.562 55.799 33.3V42.3C55.799 42.852 55.352 43.3 54.799 43.3C54.246 43.3 53.799 42.852 53.799 42.3V33.3C53.799 30.44 56.04 28.2 58.9 28.2ZM67.9 34.1H59.7V42.3H67.9V34.1ZM67.9 60.6H58.9C56.04 60.6 53.8 58.359 53.799 55.5V46.5C53.799 45.948 54.246 45.5 54.799 45.5C55.352 45.5 55.799 45.948 55.799 46.5V55.5C55.799 57.239 57.162 58.6 58.9 58.6H67.9C68.453 58.6 68.9 59.047 68.9 59.6C68.9 60.153 68.453 60.6 67.9 60.6ZM67.853 46.436H59.653V54.636H67.853V46.436ZM84.1 46.5C84.1 45.948 84.547 45.5 85.1 45.5C85.652 45.5 86.1 45.948 86.1 46.5V55.5C86.1 58.36 83.859 60.6 81 60.6H72C71.447 60.6 71 60.153 71 59.6C71 59.047 71.447 58.6 72 58.6H81C82.739 58.6 84.1 57.238 84.1 55.5V46.5ZM81 28.2H72C71.447 28.2 71 28.648 71 29.2C71 29.752 71.447 30.2 72 30.2H81C82.738 30.2 84.1 31.561 84.1 33.3V42.3C84.1 42.852 84.547 43.3 85.1 43.3C85.653 43.3 86.1 42.852 86.1 42.3V33.3C86.1 30.44 83.859 28.2 81 28.2ZM72.036 34.108H80.236V42.308H72.036V34.108ZM74.755 51.827H72.055V54.527H74.755V51.827ZM80.156 51.827V54.527H77.456V51.827L74.755 51.827V49.127H72.08V46.427H74.78V49.127H77.456H80.156V51.827Z" fill="black"/>
</svg>
