<svg width="104" height="104" viewBox="0 0 104 104" fill="none" xmlns="http://www.w3.org/2000/svg">
<path fill-rule="evenodd" clip-rule="evenodd" d="M69.1 18H89.1C92.4 18 95.1 20.7 95.1 24V44C95.1 47.3 92.4 50 89.1 50H84.7V78.6H90C90.553 78.6 91 79.047 91 79.6V83.1C91 85.748 88.846 87.901 86.2 87.901H12.8C10.153 87.901 8 85.747 8 83.1V79.6C8 79.047 8.448 78.6 9 78.6H14.3V39.4C14.3 35.926 17.126 33.1 20.6 33.1H63.1V24C63.1 20.7 65.8 18 69.1 18ZM79.3 27C77.6 27 76.2 28.2 76 29.8V30.3C76 32.1 77.5 33.6 79.3 33.6C81 33.6 82.4 32.3 82.6 30.7V30.3C82.6 29.3 82.2 28.4 81.5 27.8C81 27.4 80.4 27.1 79.7 27H79.3ZM86.2 85.901C87.744 85.901 89 84.644 89 83.1V80.6H57.582C57.14 82.391 55.478 83.5 53.099 83.5H45.799C43.421 83.5 41.759 82.391 41.317 80.6H10V83.1C10 84.644 11.256 85.901 12.8 85.901H86.2ZM56.7 78.6H82.7V50H69.1C65.8 50 63.1 47.3 63.1 44V35.1H20.6C18.269 35.1 16.3 37.069 16.3 39.4V78.6H42.199C42.751 78.6 43.199 79.047 43.199 79.6C43.199 81.253 44.828 81.5 45.799 81.5H53.099C54.071 81.5 55.7 81.253 55.7 79.6C55.7 79.047 56.147 78.6 56.7 78.6ZM72.7 37.2L72 41.9H86L85.3 37.2C85.1 35.9 84 34.9 82.7 35H79H75.3C74 35 72.9 35.9 72.7 37.2ZM38 68.6C38.7 61.3 44.6 55.7 52 55.5V51L61 58.8L52 66.6V62.4C46.5 61.2 40.8 63.8 38 68.6Z" fill="black"/>
</svg>
