<svg width="104" height="104" viewBox="0 0 104 104" fill="none" xmlns="http://www.w3.org/2000/svg">
<path fill-rule="evenodd" clip-rule="evenodd" d="M87.3 35.422V66.616C91.547 68.559 94.5 72.849 94.5 77.9C94.5 84.7 89 90.3 82.2 90.3C77.294 90.3 73.077 87.378 71.102 83.2H17.3C13.885 83.2 11 80.132 11 76.5V30.7C11 27.068 13.885 24 17.3 24H80.999C84.473 24 87.299 27.006 87.299 30.7V34.578C87.36 34.707 87.4 34.848 87.4 35C87.4 35.152 87.361 35.293 87.3 35.422ZM81 26H17.3C14.969 26 13 28.152 13 30.7V34H85.3V30.7C85.3 28.152 83.331 26 81 26ZM13 76.5C13 79.048 14.969 81.2 17.3 81.2H70.358C70.067 80.146 69.9 79.042 69.9 77.9C69.9 77.8453 69.9038 77.7913 69.9076 77.7372C69.9109 77.6913 69.9141 77.6453 69.915 77.599H43.8C41.903 77.599 40.3 75.905 40.3 73.9V43.8C40.3 41.725 41.838 40.1 43.8 40.1H78.1C79.997 40.1 81.6 41.795 81.6 43.8V65.531C81.6687 65.5276 81.7371 65.5228 81.8055 65.5181C81.9361 65.509 82.0667 65.5 82.2 65.5C83.273 65.5 84.308 65.651 85.3 65.909V36H13V76.5ZM43.8 75.6H70.122C71.037 70.732 74.79 66.836 79.6 65.785V43.8C79.6 42.798 78.81 42.1 78.1 42.1H43.8C42.959 42.1 42.3 42.847 42.3 43.8V73.901C42.3 74.873 43.092 75.6 43.8 75.6ZM86.686 81.201C87.073 81.595 87.706 81.601 88.1 81.214C88.495 80.827 88.501 80.194 88.115 79.8L82.915 74.5C82.727 74.308 82.469 74.2 82.201 74.2C81.932 74.199 81.675 74.307 81.487 74.499L76.187 79.899C75.8 80.293 75.806 80.926 76.2 81.313C76.594 81.7 77.227 81.694 77.614 81.3L82.2 76.628L86.686 81.201ZM69 31.7C69.9 31.7 70.6 31 70.6 30C70.6 29.1 69.9 28.3 69 28.3C68.1 28.3 67.4 29 67.4 30C67.3 31 68.1 31.7 69 31.7ZM75.5 30C75.5 31 74.8 31.7 73.9 31.7C73 31.7 72.3 31 72.3 30C72.3 29 73 28.3 73.9 28.3C74.8 28.3 75.5 29.1 75.5 30ZM80.5 30C80.5 31 79.8 31.7 78.9 31.7C78 31.7 77.3 31 77.3 30C77.3 29 78 28.3 78.9 28.3C79.8 28.3 80.5 29.1 80.5 30ZM19.1 40.1H33.7C34.822 40.1 35.7 41.022 35.7 42.2V54.8C35.7 55.939 34.784 56.901 33.7 56.901H19.1C17.978 56.901 17.1 55.978 17.1 54.8V42.2C17.1 41.062 18.016 40.1 19.1 40.1ZM33.649 54.901C33.671 54.881 33.7 54.84 33.7 54.8V42.2C33.7 42.131 33.68 42.092 33.672 42.083L19.1 42.1C19.1262 42.1006 19.1197 42.1207 19.1111 42.1473C19.106 42.1634 19.1 42.1819 19.1 42.2V54.8C19.1 54.87 19.121 54.909 19.128 54.918L33.649 54.901ZM33.7 60.7H19.1C18.016 60.7 17.1 61.662 17.1 62.8V75.5C17.1 76.678 17.978 77.6 19.1 77.6H33.7C34.803 77.6 35.7 76.614 35.7 75.401V62.8C35.7 61.622 34.822 60.7 33.7 60.7ZM33.7 75.4C33.7 75.506 33.663 75.571 33.638 75.599L19.127 75.616C19.121 75.608 19.1 75.569 19.1 75.5V62.8C19.1 62.7824 19.106 62.7641 19.1113 62.7481C19.1201 62.7212 19.1269 62.7006 19.1 62.7L33.673 62.683C33.68 62.692 33.7 62.73 33.7 62.8V75.4Z" fill="black"/>
</svg>
