<svg width="104" height="104" viewBox="0 0 104 104" fill="none" xmlns="http://www.w3.org/2000/svg">
<path fill-rule="evenodd" clip-rule="evenodd" d="M93.068 20.757C93.098 20.875 93.103 20.999 93.088 21.122C93.085 21.1482 93.0771 21.1721 93.0692 21.1963C93.0641 21.2119 93.0589 21.2276 93.055 21.244C93.0502 21.2624 93.0462 21.2809 93.0422 21.2995C93.0329 21.3426 93.0236 21.3858 93.004 21.427L88.1 31.789V82C88.1 85.859 84.959 89 81.1 89H55.1C51.24 89 48.1 85.859 48.1 82V44H47.1C44.343 44 42.1 46.243 42.1 49V71.5C42.1 75.076 39.364 78.03 35.848 78.445C35.303 81.309 33.868 83.845 31.654 85.757C29.349 87.843 26.305 89 23.1 89C19.987 89 17.031 87.9 14.737 85.912C14.508 85.821 14.332 85.656 14.224 85.442C11.609 82.985 10.1 79.572 10.1 76C10.1 73.778 10.615 71.765 11.585 69.984C10.615 68.071 10.1 66.063 10.1 64C10.1 61.531 10.78 59.155 12.061 57.077C10.716 54.963 10 52.531 10 50C10 42.832 15.832 37 23 37C30.168 37 36 42.832 36 50C36 52.47 35.32 54.845 34.038 56.923C35.387 59.049 36.1 61.475 36.1 64C36.1 66.069 35.583 68.083 34.607 70.001C35.585 71.929 36.1 73.937 36.1 76C36.1 76.0767 36.0981 76.1558 36.0961 76.235C36.0949 76.2828 36.0938 76.3306 36.093 76.378C38.38 75.885 40.1 73.888 40.1 71.5V49C40.1 45.14 43.24 42 47.1 42H48.1V22C48.1 18.14 51.241 15 55.1 15H81.1C84.628 15 87.547 17.627 88.025 21.028L91.849 20.034C91.8644 20.0296 91.8796 20.03 91.8948 20.0305C91.9071 20.0309 91.9194 20.0312 91.932 20.029C92.014 20.015 92.095 20.009 92.178 20.016C92.223 20.019 92.266 20.025 92.31 20.035C92.383 20.051 92.452 20.076 92.521 20.109L92.5291 20.1129C92.5703 20.1325 92.6105 20.1517 92.649 20.177C92.6577 20.1829 92.6672 20.187 92.6768 20.1911C92.6882 20.196 92.6997 20.2009 92.71 20.209C92.7368 20.2301 92.7576 20.2553 92.7784 20.2806C92.7902 20.2949 92.802 20.3093 92.815 20.323C92.8233 20.3315 92.8316 20.3398 92.84 20.3481C92.8651 20.373 92.89 20.3978 92.911 20.427C92.971 20.511 93.013 20.602 93.044 20.699C93.0464 20.7078 93.051 20.7154 93.0556 20.723C93.0605 20.7311 93.0654 20.7393 93.068 20.749C93.068 20.75 93.0679 20.751 93.0678 20.7518C93.0676 20.7535 93.0673 20.755 93.068 20.757ZM34 50C34 43.935 29.065 39 23 39C16.935 39 12 43.935 12 50C12 51.893 12.473 53.72 13.364 55.355C15.87 52.572 19.342 51 23.1 51C26.801 51 30.228 52.517 32.715 55.207C33.555 53.61 34 51.836 34 50ZM22.9 79C19.667 79 16.884 81.336 16.197 84.526C18.114 86.121 20.541 87 23.1 87C25.59 87 27.954 86.168 29.838 84.662C29.287 81.455 26.414 79 23.1 79H23H22.9ZM23.1 77H23.2C24.826 77 26.1 75.683 26.1 74C26.1 72.346 24.754 71 23.1 71C21.446 71 20.1 72.346 20.1 74C20.1 75.683 21.374 77 23 77H23.1ZM26.501 77.702C28.833 78.69 30.686 80.651 31.494 83.074C32.855 81.48 33.719 79.542 34.009 77.368C34.1 76.901 34.1 76.463 34.1 76C34.1 74.102 33.604 72.246 32.626 70.485C30.656 67.109 27.001 65 23.1 65C19.198 65 15.544 67.109 13.564 70.503C13.562 70.506 13.5603 70.509 13.5585 70.512C13.5568 70.515 13.555 70.518 13.553 70.521C12.576 72.121 12.1 73.913 12.1 76C12.1 78.526 13 80.958 14.594 82.911C15.472 80.498 17.321 78.587 19.632 77.645C18.689 76.739 18.1 75.456 18.1 74C18.1 71.243 20.343 69 23.1 69C25.857 69 28.1 71.243 28.1 74C28.1 75.489 27.482 76.793 26.501 77.702ZM64.902 29.374L74.734 34.251L88.055 23.085L87.351 23.268H87.35L64.902 29.374ZM81.1 87C83.857 87 86.1 84.757 86.1 82V36.014L79.703 49.53C79.537 49.88 79.184 50.101 78.8 50.101C78.775 50.101 78.748 50.1 78.722 50.098C78.308 50.065 77.957 49.781 77.841 49.383L73.93 36.085L59.297 28.826L86.079 21.541C85.847 18.999 83.703 17 81.1 17H55.1C52.343 17 50.1 19.243 50.1 22V82C50.1 84.757 52.343 87 55.1 87H81.1ZM75.945 35.846L79.02 46.303L89.249 24.701L75.945 35.846ZM61.1 54C57.175 54 54.1 57.075 54.1 61V63C54.1 66.859 57.241 70 61.1 70H75.1C78.959 70 82.1 66.859 82.1 63V61C82.1 57.141 78.959 54 75.1 54H61.1ZM80.1 61V63C80.1 65.757 77.857 68 75.1 68H61.1C58.343 68 56.1 65.757 56.1 63V61C56.1 58.196 58.296 56 61.1 56H75.1C77.856 56 80.1 58.243 80.1 61ZM77.1 73H59.1C58 73 57 73.5 56.3 74.2C55.6 74.9 55.1 75.9 55.1 77C55.1 79.2 56.9 81 59.1 81H77.1C78.2 81 79.2 80.5 79.9 79.8C80.6 79.1 81.1 78.1 81.1 77C81.1 74.8 79.3 73 77.1 73Z" fill="black"/>
</svg>
