<svg width="104" height="104" viewBox="0 0 104 104" fill="none" xmlns="http://www.w3.org/2000/svg">
<path fill-rule="evenodd" clip-rule="evenodd" d="M60.2 29.7C60.461 29.7 60.722 29.598 60.918 29.396L67.118 22.996C67.3 22.809 67.4 22.56 67.4 22.3V12C67.4 11.448 66.953 11 66.4 11C65.847 11 65.4 11.448 65.4 12V21.895L59.482 28.004C59.097 28.4 59.107 29.034 59.504 29.418C59.698 29.606 59.949 29.7 60.2 29.7ZM73.574 37.875L73.573 37.8727L73.572 37.871C73.5712 37.8698 73.5705 37.8685 73.57 37.867C73.546 37.766 73.496 37.676 73.443 37.588C73.437 37.5777 73.4326 37.5663 73.4283 37.5549C73.4225 37.5398 73.4167 37.5246 73.407 37.512C73.333 37.41 73.239 37.323 73.131 37.255L73.1297 37.2538C73.1291 37.2533 73.1286 37.253 73.128 37.253C73.1017 37.2369 73.0718 37.2275 73.0417 37.2181C73.0216 37.2118 73.0013 37.2054 72.982 37.197L72.9646 37.1896C72.9526 37.1843 72.9406 37.179 72.9287 37.1736C72.8755 37.1496 72.8225 37.1258 72.764 37.116C72.76 37.115 72.757 37.113 72.753 37.112L65.054 35.912C64.942 35.895 64.833 35.901 64.726 35.919C64.7225 35.9195 64.719 35.9193 64.7155 35.919C64.712 35.9188 64.7085 35.9185 64.705 35.919L54.257 37.99L52.243 35.005L54.709 29.616C54.825 29.362 54.83 29.071 54.722 28.813L51.822 21.913C51.8197 21.9074 51.8162 21.9033 51.8127 21.8993C51.8099 21.8961 51.8072 21.8929 51.805 21.889C51.7915 21.8601 51.773 21.8357 51.7544 21.8111L51.7544 21.811L51.7543 21.8109C51.744 21.7973 51.7336 21.7836 51.724 21.769L51.7105 21.748C51.6684 21.6821 51.627 21.6175 51.571 21.566C51.5619 21.5575 51.5512 21.5516 51.5406 21.5456C51.5324 21.5411 51.5243 21.5366 51.517 21.531C51.435 21.465 51.349 21.406 51.252 21.369C51.226 21.3587 51.1983 21.355 51.1702 21.3513C51.1518 21.3488 51.1332 21.3464 51.115 21.342L51.0839 21.3348C51.0159 21.3189 50.9492 21.3033 50.878 21.305C50.8739 21.305 50.87 21.3039 50.8662 21.3029C50.8628 21.3019 50.8594 21.301 50.856 21.301C38.769 21.831 29.3 31.714 29.3 43.8C29.3 50.844 32.665 57.572 38.31 61.808C40.655 63.521 42 66.143 42 69V73.7C42 74.066 42.207 74.373 42.5 74.547V77.1H42.4C41.848 77.1 41.4 77.547 41.4 78.1C41.4 78.653 41.848 79.1 42.4 79.1H42.5V81.4H42.4C41.848 81.4 41.4 81.847 41.4 82.4C41.4 82.953 41.848 83.4 42.4 83.4H42.5V84.7C42.5 86.354 43.846 87.7 45.5 87.7H46.703C47.179 90.11 49.332 91.9 51.8 91.9C54.347 91.9 56.429 90.048 56.898 87.7H58.2C59.854 87.7 61.2 86.354 61.2 84.7V83.4H61.3C61.853 83.4 62.3 82.953 62.3 82.4C62.3 81.847 61.853 81.4 61.3 81.4H61.2V79.1H61.3C61.853 79.1 62.3 78.653 62.3 78.1C62.3 77.547 61.853 77.1 61.3 77.1H61.2V74.548C61.494 74.374 61.7 74.068 61.7 73.701V69C61.7 66.122 63.079 63.396 65.399 61.7C71.575 57.069 74.901 49.675 74.296 41.924C74.1913 40.5458 73.8787 39.1935 73.5765 37.8859L73.574 37.875ZM59.2 84.7C59.2 85.252 58.752 85.7 58.2 85.7H45.5C44.949 85.7 44.5 85.252 44.5 84.7V83.4H59.2V84.7ZM59.2 81.4H44.5V79.1H59.2V81.4ZM44.5 77.1V74.7H48.4H55.2H59.2V77.1H44.5ZM49.4 65.9H54.2V72.7H49.4V65.9ZM64.21 60.093C61.386 62.156 59.7 65.486 59.7 69V72.7H56.2V64.9V59.4C56.2 58.373 56.796 57.434 57.729 57.004L59.83 56.004C60.329 55.766 60.541 55.169 60.304 54.671C60.066 54.172 59.472 53.961 58.971 54.197L56.881 55.192C55.252 55.943 54.2 57.596 54.2 59.4V63.9H49.4V59.4C49.4 57.595 48.348 55.943 46.73 55.198L44.63 54.198C44.131 53.961 43.534 54.171 43.297 54.671C43.06 55.169 43.271 55.766 43.77 56.004L45.881 57.009C46.804 57.435 47.4 58.373 47.4 59.401V64.901V72.701H44V69C44 65.498 42.356 62.287 39.5 60.2C34.365 56.348 31.3 50.217 31.3 43.8C31.3 33.018 39.578 24.182 50.262 23.362L52.708 29.183L50.486 34.039L42.492 33.304C41.938 33.256 41.455 33.659 41.405 34.208C41.354 34.758 41.759 35.245 42.309 35.295L50.538 36.052L52.972 39.659C53.16 39.938 53.473 40.099 53.801 40.099C53.865 40.099 53.931 40.093 53.995 40.08L62.818 38.331L58.665 44.931L50.647 47.031C50.113 47.171 49.793 47.718 49.933 48.252C50.05 48.703 50.456 49 50.899 49C50.982 49 51.068 48.99 51.153 48.967L59.552 46.767C59.798 46.703 60.01 46.547 60.146 46.332L65.396 37.989L71.775 38.984C72.009 40.014 72.224 41.062 72.302 42.078C72.854 49.145 69.825 55.882 64.21 60.093ZM72.6 29.2H86.4C86.953 29.2 87.4 29.648 87.4 30.2C87.4 30.752 86.953 31.2 86.4 31.2H72.6C72.047 31.2 71.6 30.752 71.6 30.2C71.6 29.648 72.047 29.2 72.6 29.2ZM74.8 23.3C75.07 23.3 75.338 23.192 75.535 22.978L81.435 16.578C81.809 16.172 81.784 15.539 81.377 15.165C80.971 14.791 80.339 14.817 79.964 15.223L74.064 21.623C73.69 22.029 73.715 22.662 74.122 23.036C74.314 23.212 74.558 23.3 74.8 23.3ZM30.3 69.3L18 64.9L24.4 59.2L30.3 60V69.3ZM78.7 43.5L76.8 57.7L86.3 51.1L85.3 43.8L78.7 43.5ZM36 12.5H40L41.7 19.1L32.4 23.3L36 12.5Z" fill="black"/>
</svg>
