<svg width="104" height="104" viewBox="0 0 104 104" fill="none" xmlns="http://www.w3.org/2000/svg">
<path fill-rule="evenodd" clip-rule="evenodd" d="M75.3 23L71.8 24.8L72.4 20.9L69.6 18.2L73.5 17.6L75.3 14L77 17.6L80.9 18.2L78.1 20.9L78.8 24.8L75.3 23ZM46.6 78.7L48.4 82.2L52.3 82.8L49.5 85.6L50.1 89.5L46.6 87.6L43.1 89.5L43.8 85.6L41 82.8L44.9 82.2L46.6 78.7ZM21.9 39.9L26.458 28.87L33.6 39.4L35.063 26.874L45.7 33.7L42.354 22.518C43.788 21.408 44.917 20.339 45.725 19.489C46.105 19.088 46.089 18.455 45.689 18.075C45.289 17.696 44.656 17.712 44.275 18.111C42.002 20.505 37.059 24.754 29.493 26.322C24.824 27.313 19.91 27.113 15.285 25.741C14.756 25.586 14.199 25.886 14.042 26.416C13.885 26.946 14.188 27.502 14.717 27.659C15.784 27.975 16.868 28.213 17.958 28.412L21.9 39.9ZM89.589 76.822C90.133 76.702 90.662 77.051 90.777 77.59C90.894 78.13 90.55 78.662 90.01 78.777L89.663 78.852L89.6594 78.8528L89.6591 78.8528C88.6654 79.0676 87.6585 79.2851 86.506 79.383L80.7 89L78.046 79.213L69.5 86.1L71.608 74.291C70.725 73.535 69.87 72.699 69.046 71.757C68.683 71.342 68.725 70.71 69.141 70.346C69.555 69.982 70.186 70.023 70.552 70.441C71.292 71.286 72.056 72.037 72.844 72.717L75.415 74.596C76.555 75.285 77.749 75.838 79.009 76.249C84.2168 77.9856 86.6539 77.4572 89.2363 76.8974L89.238 76.897L89.589 76.822ZM80 63.8C80 66.171 81.929 68.1 84.3 68.1C86.671 68.1 88.6 66.171 88.6 63.8C88.6 61.429 86.671 59.5 84.3 59.5C81.929 59.5 80 61.429 80 63.8ZM84.3 61.5C85.569 61.5 86.6 62.531 86.6 63.8C86.6 65.069 85.569 66.1 84.3 66.1C83.031 66.1 82 65.068 82 63.8C82 62.532 83.031 61.5 84.3 61.5ZM17.829 54.01C18.1 53.528 18.707 53.356 19.191 53.629C20.366 54.291 21.768 53.964 22.453 52.869C23.091 51.733 22.765 50.331 21.671 49.647C21.203 49.354 21.061 48.737 21.353 48.269C21.646 47.801 22.262 47.659 22.731 47.951C24.748 49.212 25.367 51.765 24.172 53.89C23.326 55.245 21.93 55.976 20.469 55.976C19.711 55.976 18.936 55.78 18.21 55.371C17.729 55.101 17.558 54.492 17.829 54.01ZM64.73 59.689L70.947 56.495C71.781 56.0775 72.607 55.5617 73.4479 55.0367L73.4481 55.0366L73.457 55.031L82.573 48.919C84.036 47.895 84.426 45.806 83.419 44.227C83.121 43.8 82.725 43.477 82.284 43.24C83.214 42.127 83.364 40.451 82.519 39.126C82.139 38.584 81.612 38.191 81.02 37.961C81.528 36.91 81.504 35.603 80.818 34.526C80.448 33.998 79.937 33.615 79.363 33.382C79.464 33.149 79.544 32.909 79.584 32.665C79.743 31.716 79.517 30.748 79.018 30.126C77.993 28.665 75.905 28.273 74.342 29.269L66.265 34.683L63.821 28.612C62.848 26.305 60.412 24.968 58.005 25.4H57.9C57.84 25.4 57.78 25.405 57.721 25.416C56.925 25.561 56.224 26.071 55.796 26.815C55.347 27.599 55.26 28.52 55.563 29.351L57.956 35.73C58.583 37.521 58.465 39.32 57.614 40.936L55.19 45.557L53.862 43.59C53.552 43.132 52.93 43.011 52.473 43.321L40.952 51.098C40.732 51.246 40.58 51.476 40.53 51.736C40.48 51.996 40.535 52.266 40.683 52.486L41.572 53.802L15.377 69.848C15.144 69.991 14.98 70.222 14.922 70.489C14.864 70.757 14.919 71.035 15.071 71.261L25.971 87.361C26.124 87.588 26.363 87.741 26.632 87.787C26.688 87.796 26.743 87.801 26.799 87.801C27.013 87.801 27.223 87.733 27.397 87.603L52.01 69.263L52.769 70.388C52.962 70.674 53.277 70.828 53.599 70.828C53.791 70.828 53.986 70.772 54.158 70.657L65.679 62.881C65.899 62.733 66.051 62.503 66.101 62.242C66.152 61.981 66.097 61.712 65.949 61.492L64.73 59.689ZM59.385 41.866C60.484 39.779 60.647 37.365 59.837 35.049L57.44 28.658C57.344 28.395 57.379 28.078 57.533 27.811C57.652 27.603 57.824 27.457 58.013 27.4H58.1C58.165 27.4 58.232 27.394 58.296 27.38C59.808 27.078 61.36 27.921 61.973 29.373L64.872 36.573C64.984 36.853 65.218 37.067 65.506 37.155C65.793 37.244 66.108 37.198 66.357 37.03L75.438 30.943C76.071 30.543 76.977 30.697 77.419 31.324C77.602 31.553 77.678 31.949 77.613 32.336C77.561 32.646 77.335 32.992 77.03 33.177L76.768 33.358C76.549 33.442 76.335 33.546 76.131 33.677L72.231 36.377C71.777 36.691 71.664 37.315 71.978 37.769C72.291 38.222 72.915 38.336 73.37 38.022L73.865 37.679C74.006 37.656 74.144 37.609 74.27 37.522L77.637 35.188C78.208 35.034 78.85 35.201 79.156 35.637C79.558 36.268 79.404 37.177 78.831 37.578L74.931 40.278C74.9263 40.2812 74.9229 40.2854 74.9195 40.2898C74.9181 40.2916 74.9167 40.2934 74.9151 40.2951C74.9133 40.2972 74.9113 40.2992 74.909 40.301L73.931 40.978C73.477 41.292 73.364 41.916 73.678 42.37C73.992 42.823 74.614 42.936 75.07 42.623L78.938 39.945C79.57 39.543 80.478 39.698 80.857 40.238C81.259 40.869 81.104 41.777 80.531 42.178L78.982 43.251C78.9502 43.2678 78.9179 43.2829 78.8855 43.298L78.8853 43.2981C78.8333 43.3224 78.7813 43.3466 78.732 43.378L74.833 46.078C74.379 46.392 74.266 47.016 74.58 47.47C74.894 47.923 75.516 48.037 75.972 47.723L77.546 46.633C77.624 46.604 77.701 46.573 77.772 46.523L79.993 44.985C80.612 44.69 81.407 44.838 81.758 45.338C82.16 45.969 82.006 46.877 81.446 47.27L72.359 53.362L72.3569 53.3633L72.3567 53.3634C71.5596 53.8609 70.8073 54.3304 70.046 54.712L63.606 58.021L56.464 47.441L59.385 41.866ZM27.042 85.373L17.315 71.006L42.693 55.462L50.889 67.604L27.042 85.373ZM53.867 68.439L53.248 67.522C53.219 67.424 53.187 67.326 53.127 67.238L43.827 53.539C43.8182 53.5258 43.8066 53.5162 43.795 53.5065C43.7856 53.4987 43.7761 53.4909 43.768 53.481L42.9 52.196L52.763 45.538L63.729 61.783L53.867 68.439ZM56.6 62.6H55.1C54.5 62.6 54 62.1 54 61.5V60C54 59.4 54.5 58.9 55.1 58.9H56.6C57.2 58.9 57.7 59.4 57.7 60V61.5C57.7 62.1 57.2 62.6 56.6 62.6Z" fill="black"/>
</svg>
