<svg width="104" height="104" viewBox="0 0 104 104" fill="none" xmlns="http://www.w3.org/2000/svg">
<path fill-rule="evenodd" clip-rule="evenodd" d="M50 16C51.6569 16 53 14.6569 53 13C53 11.3431 51.6569 10 50 10C48.3431 10 47 11.3431 47 13C47 14.6569 48.3431 16 50 16ZM89 92H76.274C77.941 90.533 79 88.39 79 86C79 81.634 75.483 78.08 71.135 78.007C71.173 77.619 71.2 77.225 71.2 76.8C71.2 69.981 67.297 63.907 61.2 61.142V44C61.2 43.448 60.753 43 60.2 43H55V34.414L61.5 27.914L65.793 32.207C66.184 32.598 66.816 32.598 67.207 32.207L76.707 22.707C77.098 22.316 77.098 21.684 76.707 21.293C76.316 20.902 75.684 20.902 75.293 21.293L66.5 30.086L62.207 25.793C61.816 25.402 61.184 25.402 60.793 25.793L55 31.586V19.5C55 18.948 54.553 18.5 54 18.5C53.447 18.5 53 18.948 53 19.5V24.586L43.207 14.793C42.816 14.402 42.184 14.402 41.793 14.793C41.402 15.184 41.402 15.816 41.793 16.207L44.586 19L33.767 29.819L28.385 27.577C27.874 27.362 27.289 27.606 27.077 28.115C26.865 28.625 27.105 29.21 27.615 29.423L33.615 31.923C33.74 31.975 33.87 32 34 32C34.26 32 34.516 31.898 34.707 31.707L46 20.414L53 27.414V43H47.7C47.148 43 46.7 43.448 46.7 44V61.146C42.917 62.901 39.862 66.082 38.152 70H28.4C27.848 70 27.4 70.447 27.4 71V92H16C15.448 92 15 92.447 15 93C15 93.553 15.448 94 16 94H28.4H43.4H89C89.553 94 90 93.553 90 93C90 92.447 89.553 92 89 92ZM77 86C77 89.309 74.309 92 71 92C68.68 92 66.668 90.675 65.67 88.744C65.642 88.567 65.583 88.393 65.458 88.247C65.4545 88.243 65.4502 88.2402 65.446 88.2375L65.4406 88.2338C65.4382 88.2321 65.436 88.2303 65.434 88.228C65.157 87.538 65 86.788 65 86C65 83.048 67.145 80.593 69.957 80.097C69.972 80.098 69.986 80.1 70.001 80.1C70.105 80.1 70.204 80.075 70.299 80.045C70.53 80.018 70.763 80 71 80C74.309 80 77 82.691 77 86ZM48.083 62.724C48.457 62.569 48.7 62.204 48.7 61.8V45H59.2V61.8C59.2 62.207 59.446 62.573 59.823 62.726C65.52 65.044 69.2 70.568 69.2 76.8C69.2 77.29 69.153 77.754 69.096 78.239C65.603 79.096 63 82.246 63 86C63 86.917 63.163 87.795 63.448 88.616C60.713 90.759 57.467 91.9 54 91.9C50.539 91.9 47.072 90.663 44.4 88.513V71C44.4 70.447 43.952 70 43.4 70H40.344C42 66.714 44.756 64.103 48.083 62.724ZM29.4 72H38.825H38.83H42.4V80.68L29.536 92H29.4V72ZM34 24C35.6569 24 37 22.6569 37 21C37 19.3431 35.6569 18 34 18C32.3431 18 31 19.3431 31 21C31 22.6569 32.3431 24 34 24ZM49 30C49 31.6569 47.6569 33 46 33C44.3431 33 43 31.6569 43 30C43 28.3431 44.3431 27 46 27C47.6569 27 49 28.3431 49 30ZM76 33C77.6569 33 79 31.6569 79 30C79 28.3431 77.6569 27 76 27C74.3431 27 73 28.3431 73 30C73 31.6569 74.3431 33 76 33ZM72 20C72 21.6569 70.6569 23 69 23C67.3431 23 66 21.6569 66 20C66 18.3431 67.3431 17 69 17C70.6569 17 72 18.3431 72 20ZM84 18C84 19.6569 82.6569 21 81 21C79.3431 21 78 19.6569 78 18C78 16.3431 79.3431 15 81 15C82.6569 15 84 16.3431 84 18Z" fill="black"/>
</svg>
