<svg width="104" height="104" viewBox="0 0 104 104" fill="none" xmlns="http://www.w3.org/2000/svg">
<path fill-rule="evenodd" clip-rule="evenodd" d="M67.5 20.2C69.484 20.2 71.1 18.585 71.1 16.6C71.1 14.615 69.484 13 67.5 13C65.516 13 63.9 14.615 63.9 16.6C63.9 18.585 65.516 20.2 67.5 20.2ZM67.5 15C68.382 15 69.1 15.718 69.1 16.6C69.1 17.482 68.382 18.2 67.5 18.2C66.618 18.2 65.9 17.482 65.9 16.6C65.9 15.718 66.618 15 67.5 15ZM51.5 41.2C57.023 41.2 61.5 36.723 61.5 31.2C61.5 25.677 57.023 21.2 51.5 21.2C45.977 21.2 41.5 25.677 41.5 31.2C41.5 36.723 45.977 41.2 51.5 41.2ZM46.593 30.693C46.984 30.303 47.617 30.303 48.007 30.693L50 32.686L54.993 27.693C55.384 27.303 56.017 27.303 56.407 27.693C56.798 28.084 56.798 28.717 56.407 29.107L50.707 34.807C50.316 35.198 49.683 35.198 49.293 34.807L46.593 32.107C46.202 31.717 46.202 31.083 46.593 30.693ZM80.642 50.36L90.642 65.96C90.839 66.269 90.853 66.659 90.677 66.979C90.502 67.301 90.165 67.5 89.8 67.5H80.8V90.9C80.8 91.453 80.353 91.9 79.8 91.9H46.4H25C24.448 91.9 24 91.453 24 90.9V67.5H15C14.634 67.5 14.298 67.301 14.123 66.98C13.948 66.659 13.962 66.269 14.159 65.96L24.159 50.36C24.1878 50.3141 24.2239 50.2755 24.26 50.2368L24.272 50.224C24.2772 50.2184 24.2816 50.2124 24.286 50.2064C24.2918 50.1986 24.2976 50.1908 24.305 50.184C24.386 50.105 24.48 50.044 24.582 49.997C24.5997 49.9885 24.6181 49.9818 24.6365 49.9751L24.653 49.969C24.763 49.928 24.879 49.899 25 49.899H46.4H79.801C79.922 49.899 80.038 49.928 80.148 49.969C80.173 49.979 80.196 49.987 80.22 49.998C80.321 50.045 80.415 50.105 80.496 50.184C80.501 50.189 80.5054 50.1943 80.5096 50.1997L80.5173 50.2097C80.5214 50.2149 80.5255 50.2201 80.53 50.225L80.5478 50.2445L80.5478 50.2445C80.5812 50.2809 80.6148 50.3176 80.642 50.36ZM44.571 51.9H25.547L16.829 65.5H35.853L44.571 51.9ZM37.242 67.04C37.058 67.326 36.741 67.5 36.4 67.5H26V89.523L45.4 80.277V54.313L37.242 67.04ZM47.4 89.9H78.8V67.5H56.401C56.06 67.5 55.743 67.326 55.559 67.04L47.4 54.313V89.9ZM48.229 51.9L56.947 65.5H87.971L79.253 51.9H48.229ZM66.1 82.6H75.8V86.9H66.1V82.6ZM67.293 42.309L70.293 38.209C70.617 37.764 71.243 37.666 71.691 37.992C72.136 38.318 72.233 38.944 71.907 39.389L68.907 43.489C68.711 43.757 68.408 43.899 68.099 43.899C67.894 43.899 67.688 43.836 67.509 43.706C67.064 43.38 66.967 42.754 67.293 42.309ZM32.624 34.537C31.821 33.801 30.628 33.788 29.907 34.507C29.517 34.897 28.883 34.898 28.492 34.507C28.101 34.116 28.101 33.484 28.492 33.093C29.97 31.614 32.379 31.603 33.974 33.063C34.758 33.781 35.179 34.764 35.161 35.83C35.145 36.828 34.745 37.803 34.036 38.576C33.84 38.791 33.57 38.9 33.299 38.9C33.058 38.9 32.816 38.813 32.624 38.637C32.217 38.264 32.189 37.631 32.563 37.224C32.941 36.811 33.154 36.304 33.163 35.795C33.168 35.452 33.08 34.954 32.624 34.537Z" fill="black"/>
</svg>
