<svg width="104" height="104" viewBox="0 0 104 104" fill="none" xmlns="http://www.w3.org/2000/svg">
<path fill-rule="evenodd" clip-rule="evenodd" d="M80.9 14H24C21.243 14 19 16.243 19 19V80.1C19 82.857 21.243 85.1 24 85.1H31.802C32.272 87.427 34.342 89.2 36.8 89.2C39.258 89.2 41.328 87.427 41.798 85.1H63.202C63.672 87.427 65.742 89.2 68.2 89.2C70.658 89.2 72.728 87.427 73.198 85.1H80.9C83.657 85.1 85.9 82.857 85.9 80.1V19C85.9 16.243 83.657 14 80.9 14ZM83.9 80.1C83.9 81.754 82.554 83.1 80.9 83.1H24C22.346 83.1 21 81.754 21 80.1V37.3H83.9V80.1ZM83.9 35.3H21V19C21 17.346 22.346 16 24 16H80.9C82.554 16 83.9 17.346 83.9 19V35.3ZM33.9 59.2C36.657 59.2 38.9 56.957 38.9 54.2C38.9 51.443 36.657 49.2 33.9 49.2C31.143 49.2 28.9 51.443 28.9 54.2C28.9 56.957 31.143 59.2 33.9 59.2ZM33.9 51.2C35.554 51.2 36.9 52.546 36.9 54.2C36.9 55.854 35.554 57.2 33.9 57.2C32.246 57.2 30.9 55.854 30.9 54.2C30.9 52.546 32.246 51.2 33.9 51.2ZM52.9 54.2C52.9 56.957 50.657 59.2 47.9 59.2C45.143 59.2 42.9 56.957 42.9 54.2C42.9 51.443 45.143 49.2 47.9 49.2C50.657 49.2 52.9 51.443 52.9 54.2ZM50.9 54.2C50.9 52.546 49.554 51.2 47.9 51.2C46.246 51.2 44.9 52.546 44.9 54.2C44.9 55.854 46.246 57.2 47.9 57.2C49.554 57.2 50.9 55.854 50.9 54.2ZM29.9 74.9H51.9C52.452 74.9 52.9 74.453 52.9 73.9V63.6C52.9 63.047 52.452 62.6 51.9 62.6H29.9C29.348 62.6 28.9 63.047 28.9 63.6V73.9C28.9 74.453 29.348 74.9 29.9 74.9ZM30.9 64.6H50.9V72.9H30.9V64.6ZM65.8 62.1H62.4C62 62.1 61.8 61.6 62 61.3L70.3 50.2C70.6 49.8 71.2 50 71.2 50.5V61.6C71.2 61.9 71.4 62.1 71.7 62.1H75.1C75.5 62.1 75.7 62.6 75.5 62.9L67.2 74C66.9 74.4 66.3 74.2 66.3 73.7V62.6C66.3 62.3 66.1 62.1 65.8 62.1ZM44.2 21.9H29C28.4 21.9 28 22.3 28 22.9V28.3C28 28.9 28.4 29.3 29 29.3H44.2C44.7 29.3 45.2 28.9 45.2 28.3V22.9C45.2 22.3 44.8 21.9 44.2 21.9ZM60.7 21.9H75.9C76.5 21.9 76.9 22.3 76.9 22.9V28.3C76.9 28.9 76.5 29.3 75.9 29.3H60.7C60.1 29.3 59.7 28.9 59.7 28.3V22.9C59.7 22.3 60.1 21.9 60.7 21.9Z" fill="black"/>
</svg>
