<svg width="104" height="104" viewBox="0 0 104 104" fill="none" xmlns="http://www.w3.org/2000/svg">
<path fill-rule="evenodd" clip-rule="evenodd" d="M86.1 71.3H79.797L77.19 57.458C76.42 52.066 71.737 48 66.3 48H59.983C65.342 45.136 69 39.489 69 33C69 29.547 68.043 26.313 66.233 23.646C63.157 18.93 57.704 16 52 16C42.626 16 35 23.626 35 33C35 36.24 35.978 39.553 37.766 42.35C37.766 42.351 37.766 42.351 37.767 42.352L37.768 42.353C37.769 42.355 37.77 42.357 37.771 42.358C39.396 44.767 41.552 46.686 44.017 47.999H37.7C32.157 47.999 27.577 51.978 26.816 57.42L24.293 71.3H18C15.8 71.3 14 73.1 14 75.3V84.9C14 87.1 15.8 88.9 18 88.9H86.1C88.3 88.9 90.1 87.1 90.1 84.9V75.3C90.1 73.1 88.3 71.3 86.1 71.3ZM40.019 42.059L47.452 37.134C47.674 36.988 47.827 36.759 47.88 36.498C47.932 36.238 47.879 35.967 47.732 35.746C47.211 34.964 46.9 33.938 46.9 33C46.9 30.188 49.188 27.9 52 27.9C53.77 27.9 55.282 28.732 56.26 30.243C56.406 30.468 56.634 30.624 56.896 30.679C57.155 30.733 57.43 30.681 57.653 30.533L65.097 25.601C66.343 27.767 67 30.303 67 33C67 41.271 60.271 48 52 48C47.309 48 42.895 45.79 40.019 42.059ZM28.79 57.738C29.418 53.255 33.166 50 37.7 50H66.3C70.749 50 74.579 53.328 75.218 57.784L77.762 71.3H26.325L28.79 57.738ZM28.7 79.1L26.5 80.7C26.3 80.8 26.2 81.1 26.3 81.3L27.1 83.8C27.3 84.3 26.7 84.8 26.2 84.4L24.1 83C23.9 82.9 23.6 82.9 23.4 83L21.2 84.6C20.7 84.9 20.1 84.5 20.3 84L21.1 81.5C21.2 81.3 21.1 81 20.9 80.9L18.7 79.3C18.2 79 18.5 78.3 19 78.3H21.7C22 78.3 22.2 78.1 22.3 77.9L23.1 75.4C23.3 74.6 24.1 74.6 24.3 75.2L25.1 77.7C25.2 77.9 25.4 78.1 25.7 78.1H28.4C29 78.1 29.2 78.8 28.7 79.1ZM42.8 79.1L40.6 80.7C40.4 80.8 40.3 81.1 40.4 81.3L41.2 83.8C41.4 84.3 40.8 84.8 40.3 84.4L38.2 83C38 82.9 37.7 82.9 37.5 83L35.3 84.6C34.8 84.9 34.2 84.5 34.4 84L35.2 81.5C35.3 81.3 35.2 81 35 80.9L33 79.1C32.5 78.8 32.8 78.1 33.3 78.1H36C36.3 78.1 36.5 77.9 36.6 77.7L37.4 75.2C37.5 74.6 38.3 74.6 38.4 75.2L39.2 77.7C39.3 77.9 39.5 78.1 39.8 78.1H42.5C43.1 78.1 43.3 78.8 42.8 79.1ZM57 79.1L54.8 80.7C54.6 80.8 54.5 81.1 54.6 81.3L55.4 83.8C55.6 84.3 55 84.8 54.5 84.4L52.4 83C52.2 82.9 51.9 82.9 51.7 83L49.5 84.6C49 84.9 48.4 84.5 48.6 84L49.4 81.5C49.5 81.3 49.4 81 49.2 80.9L47 79.3C46.5 79 46.8 78.3 47.3 78.3H50C50.3 78.3 50.5 78.1 50.6 77.9L51.4 75.4C51.7 74.6 52.4 74.6 52.6 75.2L53.4 77.7C53.5 77.9 53.7 78.1 54 78.1H56.7C57.3 78.1 57.5 78.8 57 79.1ZM71.2 79.1L69 80.7C68.8 80.8 68.7 81.1 68.8 81.3L69.6 83.8C69.8 84.3 69.2 84.8 68.7 84.4L66.6 83C66.4 82.9 66.1 82.9 65.9 83L63.7 84.6C63.2 84.9 62.6 84.5 62.8 84L63.6 81.5C63.7 81.3 63.6 81 63.4 80.9L61.2 79.3C60.7 79 61 78.3 61.5 78.3H64.2C64.5 78.3 64.7 78.1 64.8 77.9L65.6 75.4C65.8 74.6 66.6 74.6 66.8 75.2L67.6 77.7C67.7 77.9 67.9 78.1 68.2 78.1H70.9C71.5 78.1 71.7 78.8 71.2 79.1ZM85.3 79.1L83.1 80.7C82.9 80.8 82.8 81.1 82.9 81.3L83.7 83.8C83.9 84.3 83.3 84.8 82.8 84.4L80.7 83C80.5 82.9 80.2 82.9 80 83L77.8 84.6C77.3 84.9 76.7 84.5 76.9 84L77.7 81.5C77.8 81.3 77.7 81 77.5 80.9L75.3 79.3C74.8 79 75.1 78.3 75.6 78.3H78.3C78.6 78.3 78.8 78.1 78.9 77.9L79.7 75.4C80 74.6 80.8 74.6 80.9 75.2L81.7 77.7C81.8 77.9 82 78.1 82.3 78.1H85C85.6 78.1 85.8 78.8 85.3 79.1Z" fill="black"/>
</svg>
