<svg width="104" height="104" viewBox="0 0 104 104" fill="none" xmlns="http://www.w3.org/2000/svg">
<path fill-rule="evenodd" clip-rule="evenodd" d="M92.199 23.5342C92.212 23.1632 92.017 22.8162 91.695 22.6322L76.795 14.1322C76.488 13.9572 76.111 13.9572 75.805 14.1322L61.486 22.3002H18C14.14 22.3002 11 25.4402 11 29.3002V77.4002C11 81.2592 14.14 84.4002 18 84.4002H25.9V87.9002C25.9 88.5002 26.3 88.9002 26.9 88.9002H35.7C36.2 88.9002 36.7 88.5002 36.7 87.9002V84.4002H59.8V87.9002C59.8 88.5002 60.2 88.9002 60.8 88.9002H69.6C70.2 88.9002 70.6 88.5002 70.6 87.9002V84.4002H78.6C82.459 84.4002 85.6 81.2592 85.6 77.4002V43.9062C87.407 41.4162 88.897 38.4302 90.026 34.9862C91.997 28.9702 92.192 23.7522 92.199 23.5342ZM76.3 16.1512L90.164 24.0602C89.916 27.4132 88.097 43.9622 76.303 49.1132C64.552 43.8992 62.697 27.4572 62.438 24.0602L76.3 16.1512ZM21.2 65.0982C22.354 64.7912 23.2 63.7562 23.2 62.5002V59.0002C23.2 57.7442 22.354 56.7092 21.2 56.4022V50.2982C22.354 49.9912 23.2 48.9562 23.2 47.7002V44.2002C23.2 42.9442 22.354 41.9092 21.2 41.6022V34.6002C21.2 33.4602 22.06 32.6002 23.2 32.6002H61.922C63.666 39.0682 67.393 47.2232 75.299 50.8402V72.1002C75.299 73.2412 74.44 74.1002 73.299 74.1002H23.2C22.06 74.1002 21.2 73.2412 21.2 72.1002V65.0982ZM83.6 77.4002C83.6 80.1572 81.357 82.4002 78.6 82.4002H18C15.243 82.4002 13 80.1572 13 77.4002V29.3002C13 26.5432 15.243 24.3002 18 24.3002H60.451C60.543 25.4402 60.795 27.7602 61.429 30.6002H23.2C20.957 30.6002 19.2 32.3572 19.2 34.6002V41.6322C18.098 41.9722 17.3 42.9812 17.3 44.2002V47.7002C17.3 48.9192 18.098 49.9282 19.2 50.2682V56.4332C18.098 56.7732 17.3 57.7822 17.3 59.0012V62.5012C17.3 63.7202 18.098 64.7292 19.2 65.0692V72.1002C19.2 74.3432 20.957 76.1002 23.2 76.1002H73.3C75.543 76.1002 77.3 74.3432 77.3 72.1002V50.8482C79.636 49.7942 81.747 48.2752 83.6 46.3202V77.4002ZM70.485 33.4992L75.085 38.1992C75.273 38.3922 75.531 38.5002 75.8 38.5002H75.823C76.1 38.4942 76.362 38.3732 76.547 38.1662L84.648 29.0662C85.015 28.6532 84.978 28.0212 84.566 27.6542C84.155 27.2882 83.52 27.3232 83.154 27.7362L75.766 36.0362L71.915 32.1022C71.528 31.7082 70.895 31.7002 70.501 32.0862C70.107 32.4722 70.1 33.1042 70.485 33.4992ZM35.7 54.3002H39.7C40.3 54.3002 40.7 53.9002 40.7 53.3002C40.7 52.7002 40.3 52.3002 39.7 52.3002H35.7C35.9 49.6002 37 47.1002 38.7 45.1002L41.5 47.9002C41.7 48.1002 41.9 48.2002 42.2 48.2002C42.5 48.2002 42.7 48.1002 42.9 47.9002C43.3 47.5002 43.3 46.9002 42.9 46.5002L40.1 43.7002C42 42.0002 44.5 40.9002 47.3 40.7002V44.7002C47.3 45.3002 47.8 45.7002 48.3 45.7002C48.9 45.7002 49.3 45.3002 49.3 44.7002V40.7002C52 40.9002 54.5 42.0002 56.5 43.7002L53.7 46.5002C53.3 46.9002 53.3 47.5002 53.7 47.9002C53.9 48.1002 54.1 48.2002 54.4 48.2002C54.7 48.2002 54.9 48.1002 55.1 47.9002L57.9 45.1002C59.6 47.1002 60.7 49.5002 60.9 52.3002H56.9C56.3 52.3002 55.9 52.7002 55.9 53.3002C55.9 53.9002 56.4 54.3002 56.9 54.3002H60.9C60.7 57.0002 59.6 59.5002 57.9 61.5002L55.1 58.7002C54.7 58.3002 54.1 58.3002 53.7 58.7002C53.3 59.1002 53.3 59.7002 53.7 60.1002L56.5 62.9002C54.6 64.6002 52.1 65.7002 49.3 65.9002V61.9002C49.3 61.3002 48.9 60.9002 48.3 60.9002C47.8 60.9002 47.3 61.3002 47.3 61.9002V65.9002C44.6 65.7002 42.1 64.6002 40.1 62.9002L42.9 60.1002C43.3 59.7002 43.3 59.1002 42.9 58.7002C42.5 58.3002 41.9 58.3002 41.5 58.7002L38.7 61.5002C37 59.6002 35.9 57.1002 35.7 54.3002ZM51.3 53.3002C51.3 51.6002 50 50.3002 48.3 50.3002C46.7 50.3002 45.3 51.6002 45.3 53.3002C45.3 55.0002 46.7 56.3002 48.3 56.3002C49.9 56.3002 51.3 55.0002 51.3 53.3002Z" fill="black"/>
</svg>
