<svg width="104" height="104" viewBox="0 0 104 104" fill="none" xmlns="http://www.w3.org/2000/svg">
<path fill-rule="evenodd" clip-rule="evenodd" d="M95.6 43C95.6 46.3 92.9 49 89.6 49H87.501V71.9H92.901C93.454 71.9 93.901 72.347 93.901 72.9V76.4C93.901 79.047 91.747 81.2 89.1 81.2H27.084L28.761 87.024C28.848 87.326 28.788 87.651 28.599 87.902C28.41 88.153 28.114 88.3 27.8 88.3H11.2C10.886 88.3 10.59 88.152 10.401 87.901C10.212 87.65 10.152 87.325 10.239 87.023L11.96 81.046C8.953 78.761 7 75.159 7 71.1C7 65.028 11.353 59.959 17.1 58.836V32.6C17.1 29.126 19.926 26.3 23.4 26.3H63.6V23C63.6 19.7 66.3 17 69.6 17H89.6C92.9 17 95.6 19.7 95.6 23V43ZM79.6 25.6C77.9 25.6 76.5 26.8 76.3 28.4V28.9C76.3 30.7 77.8 32.2 79.6 32.2C81.3 32.2 82.7 30.9 82.9 29.3V28.9C82.9 27.9 82.5 27 81.8 26.4C81.3 26 80.7 25.7 80 25.6H79.6ZM75.9 33.5C74.6 33.5 73.5 34.4 73.3 35.7L72.6 40.4H86.6L85.9 35.7C85.7 34.5 84.6 33.5 83.3 33.5H79.6H75.9ZM19.5 60.6C13.71 60.6 9 65.31 9 71.1C9 76.89 13.71 81.6 19.5 81.6C25.29 81.6 30 76.89 30 71.1C30 65.31 25.29 60.6 19.5 60.6ZM13.717 82.171L12.529 86.3H26.471L25.283 82.171C23.552 83.079 21.587 83.6 19.5 83.6C17.413 83.6 15.448 83.079 13.717 82.171ZM89.099 79.2C90.643 79.2 91.9 77.944 91.9 76.4V73.901H60.482C60.04 75.692 58.378 76.8 56 76.8H48.7C46.322 76.8 44.66 75.691 44.217 73.9H31.672C31.214 75.889 30.285 77.697 29.002 79.2H89.099ZM59.6 71.9H85.5V49H69.6C66.3 49 63.6 46.3 63.6 43V28.3H23.4C21.069 28.3 19.1 30.269 19.1 32.6V58.62C19.1574 58.6183 19.2143 58.6144 19.2712 58.6104C19.347 58.6052 19.4229 58.6 19.5 58.6C26.393 58.6 32 64.207 32 71.1C32 71.3089 31.9856 71.5142 31.9713 71.7197C31.967 71.7798 31.9628 71.8398 31.959 71.9H45.1C45.652 71.9 46.1 72.347 46.1 72.9C46.1 74.552 47.729 74.799 48.7 74.799H56C56.971 74.799 58.6 74.552 58.6 72.9C58.6 72.347 59.047 71.9 59.6 71.9ZM47.3 56.6C47.3 56.047 47.748 55.6 48.3 55.6C48.852 55.6 49.3 56.047 49.3 56.6V63.6C49.3 64.153 48.852 64.6 48.3 64.6C47.748 64.6 47.3 64.153 47.3 63.6V56.6ZM44.3 57.6C43.748 57.6 43.3 58.047 43.3 58.6V61.6C43.3 62.153 43.748 62.6 44.3 62.6C44.852 62.6 45.3 62.153 45.3 61.6V58.6C45.3 58.047 44.852 57.6 44.3 57.6ZM19.5 76.1C22.2614 76.1 24.5 73.8614 24.5 71.1C24.5 68.3386 22.2614 66.1 19.5 66.1C16.7386 66.1 14.5 68.3386 14.5 71.1C14.5 73.8614 16.7386 76.1 19.5 76.1ZM51.3 58.6C51.3 58.047 51.748 57.6 52.3 57.6C52.852 57.6 53.3 58.047 53.3 58.6V61.6C53.3 62.153 52.852 62.6 52.3 62.6C51.748 62.6 51.3 62.153 51.3 61.6V58.6ZM60.4 57.6C59.847 57.6 59.4 58.047 59.4 58.6V61.6C59.4 62.153 59.847 62.6 60.4 62.6C60.953 62.6 61.4 62.153 61.4 61.6V58.6C61.4 58.047 60.953 57.6 60.4 57.6ZM56.3 55.6C55.747 55.6 55.3 56.047 55.3 56.6V63.6C55.3 64.153 55.747 64.6 56.3 64.6C56.853 64.6 57.3 64.153 57.3 63.6V56.6C57.3 56.047 56.853 55.6 56.3 55.6Z" fill="black"/>
</svg>
