<svg width="104" height="104" viewBox="0 0 104 104" fill="none" xmlns="http://www.w3.org/2000/svg">
<path fill-rule="evenodd" clip-rule="evenodd" d="M93.425 40.14C92.519 41.681 90.902 42.6 89.1 42.6H86.7V75.5H92C92.553 75.5 93 75.947 93 76.5V80C93 82.647 90.846 84.8 88.2 84.8H14.7C12.053 84.8 9.90002 82.646 9.90002 80V76.5C9.90002 75.947 10.348 75.5 10.9 75.5H16.3V36.2C16.3 32.726 19.126 29.9 22.6 29.9H71.726L76.731 21.201C76.737 21.193 76.742 21.185 76.747 21.176C77.682 19.657 79.31 18.75 81.099 18.75H81.1C82.89 18.75 84.516 19.657 85.451 21.176L93.467 35.101C94.359 36.706 94.34 38.585 93.425 40.14ZM22.6 31.9C20.269 31.9 18.3 33.869 18.3 36.2V75.499H44.199C44.751 75.499 45.199 75.946 45.199 76.499C45.199 78.152 46.828 78.399 47.799 78.399H55.099C56.071 78.399 57.7 78.152 57.7 76.499C57.7 75.946 58.147 75.499 58.7 75.499H84.7V42.599H73.099C71.297 42.599 69.68 41.68 68.774 40.139C67.859 38.584 67.84 36.706 68.725 35.114L70.575 31.9H22.6ZM91 80V77.5H59.582C59.14 79.291 57.478 80.4 55.099 80.4H47.799C45.421 80.4 43.759 79.291 43.317 77.5H11.9V80C11.9 81.544 13.156 82.8 14.7 82.8H88.2C89.744 82.8 91 81.544 91 80ZM70.498 39.125C71.042 40.049 72.014 40.6 73.1 40.6H89.1C90.186 40.6 91.158 40.049 91.702 39.126C92.253 38.188 92.262 37.051 91.726 36.086L83.733 22.199C83.18 21.301 82.191 20.75 81.101 20.75H81.1C80.015 20.75 79.028 21.296 78.458 22.213L70.467 36.099C69.937 37.051 69.946 38.187 70.498 39.125ZM67 55.4C67 54.3 64.4 53.4 60.5 52.8C60.1 50.2 59.5 47.4 58.2 45.1C57.7 44.3 57 43.4 56.1 43.2C55.4 43 54.6 43.2 54 43.6C53.6882 43.8079 53.4244 44.0758 53.167 44.3372L53.167 44.3372C52.6815 44.8302 52.2189 45.3 51.5 45.3C50.7819 45.2347 50.3195 44.7859 49.8346 44.3151L49.8345 44.3151C49.5767 44.0648 49.3125 43.8083 49 43.6C48.4 43.2 47.6 43 46.9 43.2C45.9 43.4 45.2 44.3 44.8 45.1C43.5 47.4 42.9 50.2 42.5 52.8C38.6 53.4 36 54.3 36 55.4C36 57.2 42.9 58.6 51.5 58.6C60.1 58.6 67 57.2 67 55.4ZM48.3 67.1C48.8 66.7 49.3 66.4 49.8 66.1C50.8 65.6 52.1 65.6 53.1 66.1C53.6 66.4 54.1 66.8 54.6 67.2C55.7 68.1 57 68.7 58.4 68.3C60.1 67.8 60.8 66.3 61.2 64.8C61.6 63.1 61.9 61.4 62.1 59.7C48.5 61.5 40.9 59.7 40.8 59.6C41 61.4 41.2 63 41.7 64.7C42.2 66.2 42.8 67.7 44.5 68.2C46 68.6 47.2 68 48.3 67.1ZM58.9 62.4C58.9 62.4 59.4 65.3 56.9 65.4C54.3 65.5 53.9 63.8 53.9 63.8C55.4 62.8 58.9 62.4 58.9 62.4ZM44 62.4C44 62.4 47.5 62.8 49 63.8C49 63.8 48.6 65.5 46.1 65.4C43.5 65.3 44 62.4 44 62.4ZM81.1 32.8C81.653 32.8 82.1 32.352 82.1 31.8V26.9C82.1 26.348 81.653 25.9 81.1 25.9C80.547 25.9 80.1 26.348 80.1 26.9V31.8C80.1 32.352 80.547 32.8 81.1 32.8ZM79.5 35.5C79.5 34.616 80.216 33.9 81.1 33.9C81.984 33.9 82.7 34.616 82.7 35.5C82.7 36.384 81.984 37.1 81.1 37.1C80.216 37.1 79.5 36.384 79.5 35.5Z" fill="black"/>
</svg>
